<svg width="563.373" height="563.373" viewBox="0 0 422.53 422.53" class="displayed_equation" xmlns="http://www.w3.org/2000/svg">
  <path d="M 173.945313 2112.64375 L 4051.328125 2112.64375" transform="matrix(.1 0 0 -.1 0 422.53)" fill="none" stroke-width="7.97" stroke-linejoin="round" stroke="#000" stroke-miterlimit="10" />
  <path d="M 13.53125 211.265625 L 19 213.332031 L 17.195313 211.265625 L 19 209.203125" />
  <path d="M 135.3125 2112.64375 L 190 2091.979687 L 171.953125 2112.64375 L 190 2133.26875 Z M 135.3125 2112.64375" transform="matrix(.1 0 0 -.1 0 422.53)" fill="none" stroke-width="7.97" stroke="#000" stroke-miterlimit="10" />
  <path d="M 408.996094 211.265625 L 403.527344 209.203125 L 405.332031 211.265625 L 403.527344 213.332031" />
  <path d="M 4089.960938 2112.64375 L 4035.273438 2133.26875 L 4053.320313 2112.64375 L 4035.273438 2091.979687 Z M 4089.960938 2112.64375" transform="matrix(.1 0 0 -.1 0 422.53)" fill="none" stroke-width="7.97" stroke="#000" stroke-miterlimit="10" />
  <path d="M 2112.617188 173.932812 L 2112.617188 4051.315625" transform="matrix(.1 0 0 -.1 0 422.53)" fill="none" stroke-width="7.97" stroke-linejoin="round" stroke="#000" stroke-miterlimit="10" />
  <path d="M 211.261719 409 L 213.328125 403.53125 L 211.261719 405.335938 L 209.199219 403.53125" />
  <path d="M 2112.617188 135.3 L 2133.28125 189.9875 L 2112.617188 171.940625 L 2091.992188 189.9875 Z M 2112.617188 135.3" transform="matrix(.1 0 0 -.1 0 422.53)" fill="none" stroke-width="7.97" stroke="#000" stroke-miterlimit="10" />
  <path d="M 211.261719 13.535156 L 209.199219 19.003906 L 211.261719 17.199219 L 213.328125 19.003906" />
  <path d="M 2112.617188 4089.948437 L 2091.992188 4035.260937 L 2112.617188 4053.307812 L 2133.28125 4035.260937 Z M 2112.617188 4089.948437" transform="matrix(.1 0 0 -.1 0 422.53)" fill="none" stroke-width="7.97" stroke="#000" stroke-miterlimit="10" />
  <path d="M 3902.421875 2112.64375 C 3902.421875 3101.120312 3101.132813 3902.448437 2112.617188 3902.448437 C 1124.140625 3902.448437 322.8125 3101.120312 322.8125 2112.64375 C 322.8125 1124.128125 1124.140625 322.839062 2112.617188 322.839062 C 3101.132813 322.839062 3902.421875 1124.128125 3902.421875 2112.64375 Z M 3902.421875 2112.64375" transform="matrix(.1 0 0 -.1 0 422.53)" fill="#62aadf" stroke-width="7.97" stroke-linejoin="round" stroke="#000" stroke-miterlimit="10" />
  <path d="M 3504.6875 2112.64375 C 3504.6875 2881.471875 2881.445313 3504.714062 2112.617188 3504.714062 C 1343.789063 3504.714062 720.546875 2881.471875 720.546875 2112.64375 C 720.546875 1343.815625 1343.789063 720.573437 2112.617188 720.573437 C 2881.445313 720.573437 3504.6875 1343.815625 3504.6875 2112.64375 Z M 3504.6875 2112.64375" transform="matrix(.1 0 0 -.1 0 422.53)" fill="#fff" stroke-width="7.97" stroke-linejoin="round" stroke="#000" stroke-miterlimit="10" />
  <path d="M720.546875 2112.64375L3504.6875 2112.64375M2112.617188 720.573437L2112.617188 3504.714062" transform="matrix(.1 0 0 -.1 0 422.53)" fill="none" stroke-width="7.97" stroke-linejoin="round" stroke="#000" stroke-miterlimit="10" />
  <path d="M367.152344 187.128906L367.152344 186.816406C366.128906 186.816406 365.714844 186.617188 365.714844 186.070313L365.714844 180.003906 365.390625 180.003906 363.226563 180.613281 363.226563 180.984375C363.570313 180.871094 364.140625 180.804688 364.363281 180.804688 364.640625 180.804688 364.730469 180.960938 364.730469 181.351563L364.730469 186.070313C364.730469 186.628906 364.339844 186.816406 363.292969 186.816406L363.292969 187.128906 367.152344 187.128906M373.121094 183.59375C373.121094 181.296875 372.117188 179.96875 370.679688 179.96875 369.0625 179.96875 368.203125 181.441406 368.203125 183.558594 368.203125 185.535156 368.859375 187.253906 370.65625 187.253906 372.40625 187.253906 373.121094 185.503906 373.121094 183.59375zM372.039063 183.660156C372.039063 185.800781 371.539063 186.851563 370.65625 186.851563 369.761719 186.851563 369.273438 185.78125 369.273438 183.617188 369.273438 181.40625 369.761719 180.347656 370.644531 180.347656 371.558594 180.347656 372.039063 181.394531 372.039063 183.660156" />
  <path d="M 3777.304688 2406.159375 L 3875.234375 2423.425" transform="matrix(.1 0 0 -.1 0 422.53)" fill="none" stroke-width="7.97" stroke-linejoin="round" stroke="#000" stroke-miterlimit="10" />
  <path d="M360.378906 158.644531L360.054688 158.644531C359.796875 159.3125 359.652344 159.550781 359.058594 159.550781L357.507813 159.550781 356.726563 159.582031 356.726563 159.527344 358.203125 158.132813C359.382813 156.9375 360.019531 156.167969 360.019531 155.175781 360.019531 154.003906 359.136719 153.246094 357.878906 153.246094 356.796875 153.246094 356.039063 153.871094 355.691406 154.953125L355.960938 155.0625C356.371094 154.226563 356.863281 153.972656 357.589844 153.972656 358.445313 153.972656 358.980469 154.507813 358.980469 155.34375 358.980469 156.515625 358.421875 157.21875 357.320313 158.355469L355.621094 160.050781 355.621094 160.429688 360.019531 160.429688 360.378906 158.644531M366.023438 156.894531C366.023438 154.597656 365.015625 153.265625 363.578125 153.265625 361.960938 153.265625 361.101563 154.742188 361.101563 156.859375 361.101563 158.835938 361.757813 160.554688 363.554688 160.554688 365.308594 160.554688 366.023438 158.800781 366.023438 156.894531zM364.9375 156.960938C364.9375 159.101563 364.4375 160.148438 363.554688 160.148438 362.664063 160.148438 362.171875 159.078125 362.171875 156.914063 362.171875 154.707031 362.664063 153.648438 363.542969 153.648438 364.460938 153.648438 364.9375 154.695313 364.9375 156.960938" />
  <path d="M 3701.054688 2690.76875 L 3794.492188 2724.792187" transform="matrix(.1 0 0 -.1 0 422.53)" fill="none" stroke-width="7.97" stroke-linejoin="round" stroke="#000" stroke-miterlimit="10" />
  <path d="M344.460938 129.675781C344.839844 129.082031 345.253906 128.769531 345.921875 128.769531 346.613281 128.769531 347.058594 129.148438 347.058594 129.808594 347.058594 130.710938 346.265625 131.324219 345.507813 131.324219L345.296875 131.324219 345.296875 131.75 345.519531 131.75C346.589844 131.75 347.539063 132.40625 347.539063 133.398438 347.539063 134.492188 346.859375 134.816406 346.15625 134.816406 345.886719 134.816406 345.730469 134.773438 345.253906 134.527344 344.859375 134.328125 344.773438 134.269531 344.59375 134.269531 344.304688 134.269531 344.15625 134.527344 344.15625 134.761719 344.15625 135.050781 344.402344 135.375 345.40625 135.375 347.035156 135.375 348.453125 134.59375 348.453125 133.066406 348.453125 132.070313 347.707031 131.480469 346.8125 131.203125L346.8125 131.167969C347.515625 130.722656 348.019531 130.308594 348.019531 129.539063 348.019531 128.691406 347.359375 128.046875 346.222656 128.046875 345.308594 128.046875 344.617188 128.558594 344.203125 129.527344L344.460938 129.675781M354.222656 131.695313C354.222656 129.394531 353.21875 128.066406 351.777344 128.066406 350.160156 128.066406 349.300781 129.539063 349.300781 131.660156 349.300781 133.636719 349.960938 135.351563 351.757813 135.351563 353.507813 135.351563 354.222656 133.601563 354.222656 131.695313zM353.140625 131.761719C353.140625 133.902344 352.636719 134.949219 351.757813 134.949219 350.863281 134.949219 350.371094 133.878906 350.371094 131.714844 350.371094 129.507813 350.863281 128.445313 351.742188 128.445313 352.660156 128.445313 353.140625 129.496094 353.140625 131.761719" />
  <path d="M 3576.523438 2957.8 L 3662.65625 3007.526562" transform="matrix(.1 0 0 -.1 0 422.53)" fill="none" stroke-width="7.97" stroke-linejoin="round" stroke="#000" stroke-miterlimit="10" />
  <path d="M332.964844 110.765625L332.964844 109.996094 331.828125 109.996094 331.828125 105.335938 331.148438 105.335938 327.746094 110.0625 327.746094 110.765625 330.835938 110.765625 330.835938 112.53125 331.828125 112.53125 331.828125 110.765625zM330.835938 109.996094L328.359375 109.996094 328.359375 109.953125 330.789063 106.550781 330.835938 106.550781 330.835938 109.996094M338.320313 108.992188C338.320313 106.695313 337.316406 105.367188 335.878906 105.367188 334.261719 105.367188 333.402344 106.839844 333.402344 108.960938 333.402344 110.933594 334.058594 112.652344 335.855469 112.652344 337.609375 112.652344 338.320313 110.902344 338.320313 108.992188zM337.238281 109.058594C337.238281 111.203125 336.738281 112.25 335.855469 112.25 334.964844 112.25 334.472656 111.179688 334.472656 109.015625 334.472656 106.808594 334.964844 105.746094 335.84375 105.746094 336.757813 105.746094 337.238281 106.796875 337.238281 109.058594" />
  <path d="M 3407.5 3199.167187 L 3483.671875 3263.073437" transform="matrix(.1 0 0 -.1 0 422.53)" fill="none" stroke-width="7.97" stroke-linejoin="round" stroke="#000" stroke-miterlimit="10" />
  <path d="M312.652344 86.804688L312.832031 85.902344 309.773438 85.902344 309.082031 88.8125 309.214844 88.980469C309.371094 88.980469 309.429688 88.980469 309.71875 89.003906 311.257813 89.082031 312.128906 89.539063 312.128906 90.933594 312.128906 92.09375 311.425781 92.515625 310.632813 92.515625 309.917969 92.515625 309.550781 91.972656 309.105469 91.972656 308.824219 91.972656 308.65625 92.195313 308.65625 92.449219 308.65625 92.863281 309.082031 93.074219 309.941406 93.074219 311.714844 93.074219 312.941406 92.203125 312.941406 90.484375 312.941406 88.734375 311.570313 88.210938 310.253906 88.109375L309.730469 88.078125 310.03125 86.804688 312.652344 86.804688M318.722656 89.394531C318.722656 87.097656 317.71875 85.765625 316.277344 85.765625 314.660156 85.765625 313.800781 87.242188 313.800781 89.359375 313.800781 91.335938 314.460938 93.054688 316.257813 93.054688 318.007813 93.054688 318.722656 91.300781 318.722656 89.394531zM317.640625 89.460938C317.640625 91.601563 317.136719 92.648438 316.257813 92.648438 315.363281 92.648438 314.871094 91.578125 314.871094 89.414063 314.871094 87.207031 315.363281 86.148438 316.242188 86.148438 317.160156 86.148438 317.640625 87.195313 317.640625 89.460938" />
  <path d="M 3199.179688 3407.4875 L 3263.085938 3483.698437" transform="matrix(.1 0 0 -.1 0 422.53)" fill="none" stroke-width="7.97" stroke-linejoin="round" stroke="#000" stroke-miterlimit="10" />
  <path d="M289.929688 69.824219C287.53125 69.925781 285.800781 71.472656 285.800781 74.164063 285.800781 75.804688 286.527344 77.164063 288.1875 77.164063 289.59375 77.164063 290.398438 76.28125 290.398438 74.765625 290.398438 73.304688 289.605469 72.421875 288.390625 72.421875 287.8125 72.421875 287.398438 72.667969 286.941406 73.113281L286.863281 73.101563C287.140625 71.472656 288.390625 70.382813 289.953125 70.148438zM289.429688 74.855469C289.429688 76.269531 288.980469 76.773438 288.234375 76.773438 287.265625 76.773438 286.804688 75.78125 286.804688 74.398438 286.804688 73.425781 287.40625 73.070313 288.054688 73.070313 288.980469 73.070313 289.429688 73.851563 289.429688 74.855469M296.023438 73.492188C296.023438 71.195313 295.015625 69.867188 293.578125 69.867188 291.960938 69.867188 291.101563 71.339844 291.101563 73.460938 291.101563 75.433594 291.757813 77.152344 293.554688 77.152344 295.308594 77.152344 296.023438 75.402344 296.023438 73.492188zM294.9375 73.558594C294.9375 75.703125 294.4375 76.75 293.554688 76.75 292.664063 76.75 292.171875 75.679688 292.171875 73.515625 292.171875 71.308594 292.664063 70.246094 293.542969 70.246094 294.460938 70.246094 294.9375 71.296875 294.9375 73.558594" />
  <path d="M 2957.8125 3576.55 L 3007.539063 3662.64375" transform="matrix(.1 0 0 -.1 0 422.53)" fill="none" stroke-width="7.97" stroke-linejoin="round" stroke="#000" stroke-miterlimit="10" />
  <path d="M265.277344 58.648438L265.277344 58.300781 261.015625 58.300781 260.570313 60.007813 260.914063 60.042969C261.214844 59.316406 261.304688 59.203125 261.929688 59.203125L264.417969 59.203125 261.785156 65.417969 262.664063 65.417969 265.277344 58.648438M270.921875 61.792969C270.921875 59.496094 269.917969 58.167969 268.476563 58.167969 266.859375 58.167969 266.003906 59.640625 266.003906 61.761719 266.003906 63.734375 266.660156 65.453125 268.457031 65.453125 270.207031 65.453125 270.921875 63.703125 270.921875 61.792969zM269.839844 61.859375C269.839844 64.003906 269.339844 65.050781 268.457031 65.050781 267.5625 65.050781 267.070313 63.980469 267.070313 61.816406 267.070313 59.605469 267.5625 58.546875 268.445313 58.546875 269.359375 58.546875 269.839844 59.597656 269.839844 61.859375" />
  <path d="M 2690.78125 3701.042187 L 2724.804688 3794.51875" transform="matrix(.1 0 0 -.1 0 422.53)" fill="none" stroke-width="7.97" stroke-linejoin="round" stroke="#000" stroke-miterlimit="10" />
  <path d="M238.296875 56.457031C238.296875 55.5625 237.898438 55.027344 236.589844 54.234375L236.589844 54.203125C237.628906 53.636719 238.03125 53.265625 238.03125 52.453125 238.03125 51.570313 237.183594 50.910156 236.078125 50.910156 234.851563 50.910156 233.957031 51.546875 233.957031 52.5625 233.957031 53.320313 234.203125 53.777344 235.34375 54.570313L235.34375 54.605469C234.304688 55.296875 233.8125 55.652344 233.8125 56.546875 233.8125 57.683594 234.75 58.265625 236.042969 58.265625 237.371094 58.265625 238.296875 57.628906 238.296875 56.457031zM237.203125 52.429688C237.203125 53.140625 236.980469 53.578125 236.246094 54.023438 235.253906 53.421875 234.828125 53.019531 234.828125 52.363281 234.828125 51.683594 235.296875 51.28125 236.054688 51.28125 236.769531 51.28125 237.203125 51.691406 237.203125 52.429688zM235.675781 54.78125C237.027344 55.652344 237.359375 56.066406 237.359375 56.78125 237.359375 57.539063 236.78125 57.917969 236.089844 57.917969 235.242188 57.917969 234.683594 57.460938 234.683594 56.457031 234.683594 55.6875 235.039063 55.296875 235.675781 54.78125M244.121094 54.59375C244.121094 52.296875 243.117188 50.96875 241.679688 50.96875 240.0625 50.96875 239.203125 52.441406 239.203125 54.558594 239.203125 56.535156 239.859375 58.253906 241.65625 58.253906 243.40625 58.253906 244.121094 56.503906 244.121094 54.59375zM243.039063 54.660156C243.039063 56.800781 242.539063 57.851563 241.65625 57.851563 240.761719 57.851563 240.273438 56.78125 240.273438 54.617188 240.273438 52.40625 240.761719 51.347656 241.644531 51.347656 242.558594 51.347656 243.039063 52.394531 243.039063 54.660156" />
  <path d="M 2406.132813 3777.33125 L 2423.4375 3875.260937" transform="matrix(.1 0 0 -.1 0 422.53)" fill="none" stroke-width="7.97" stroke-linejoin="round" stroke="#000" stroke-miterlimit="10" />
  <path d="M180.054688 58.128906L180.054688 57.816406C179.027344 57.816406 178.613281 57.617188 178.613281 57.070313L178.613281 51.003906 178.289063 51.003906 176.125 51.613281 176.125 51.984375C176.472656 51.871094 177.039063 51.804688 177.265625 51.804688 177.542969 51.804688 177.632813 51.960938 177.632813 52.351563L177.632813 57.070313C177.632813 57.628906 177.242188 57.816406 176.191406 57.816406L176.191406 58.128906 180.054688 58.128906M186.121094 54.59375C186.121094 52.296875 185.117188 50.96875 183.679688 50.96875 182.0625 50.96875 181.203125 52.441406 181.203125 54.558594 181.203125 56.535156 181.859375 58.253906 183.65625 58.253906 185.40625 58.253906 186.121094 56.503906 186.121094 54.59375zM185.039063 54.660156C185.039063 56.800781 184.539063 57.851563 183.65625 57.851563 182.761719 57.851563 182.273438 56.78125 182.273438 54.617188 182.273438 52.40625 182.761719 51.347656 183.644531 51.347656 184.558594 51.347656 185.039063 52.394531 185.039063 54.660156M191.621094 54.59375C191.621094 52.296875 190.617188 50.96875 189.179688 50.96875 187.5625 50.96875 186.703125 52.441406 186.703125 54.558594 186.703125 56.535156 187.359375 58.253906 189.15625 58.253906 190.90625 58.253906 191.621094 56.503906 191.621094 54.59375zM190.539063 54.660156C190.539063 56.800781 190.039063 57.851563 189.15625 57.851563 188.261719 57.851563 187.773438 56.78125 187.773438 54.617188 187.773438 52.40625 188.261719 51.347656 189.144531 51.347656 190.058594 51.347656 190.539063 52.394531 190.539063 54.660156" />
  <path d="M 1819.101563 3777.33125 L 1801.835938 3875.260937" transform="matrix(.1 0 0 -.1 0 422.53)" fill="none" stroke-width="7.97" stroke-linejoin="round" stroke="#000" stroke-miterlimit="10" />
  <path d="M153.253906 65.328125L153.253906 65.015625C152.226563 65.015625 151.8125 64.816406 151.8125 64.269531L151.8125 58.203125 151.492188 58.203125 149.324219 58.8125 149.324219 59.183594C149.671875 59.070313 150.242188 59.003906 150.464844 59.003906 150.742188 59.003906 150.832031 59.160156 150.832031 59.550781L150.832031 64.269531C150.832031 64.828125 150.441406 65.015625 149.390625 65.015625L149.390625 65.328125 153.253906 65.328125M158.851563 65.328125L158.851563 65.015625C157.828125 65.015625 157.414063 64.816406 157.414063 64.269531L157.414063 58.203125 157.089844 58.203125 154.925781 58.8125 154.925781 59.183594C155.273438 59.070313 155.839844 59.003906 156.0625 59.003906 156.34375 59.003906 156.429688 59.160156 156.429688 59.550781L156.429688 64.269531C156.429688 64.828125 156.039063 65.015625 154.992188 65.015625L154.992188 65.328125 158.851563 65.328125M164.820313 61.792969C164.820313 59.496094 163.816406 58.167969 162.378906 58.167969 160.761719 58.167969 159.902344 59.640625 159.902344 61.761719 159.902344 63.734375 160.558594 65.453125 162.355469 65.453125 164.109375 65.453125 164.820313 63.703125 164.820313 61.792969zM163.738281 61.859375C163.738281 64.003906 163.238281 65.050781 162.355469 65.050781 161.464844 65.050781 160.972656 63.980469 160.972656 61.816406 160.972656 59.605469 161.464844 58.546875 162.34375 58.546875 163.257813 58.546875 163.738281 59.597656 163.738281 61.859375" />
  <path d="M 1534.492188 3701.042187 L 1500.46875 3794.51875" transform="matrix(.1 0 0 -.1 0 422.53)" fill="none" stroke-width="7.97" stroke-linejoin="round" stroke="#000" stroke-miterlimit="10" />
  <path d="M128.152344 77.03125L128.152344 76.71875C127.128906 76.71875 126.714844 76.515625 126.714844 75.972656L126.714844 69.902344 126.390625 69.902344 124.226563 70.515625 124.226563 70.882813C124.570313 70.769531 125.140625 70.703125 125.363281 70.703125 125.640625 70.703125 125.730469 70.859375 125.730469 71.25L125.730469 75.972656C125.730469 76.527344 125.339844 76.71875 124.292969 76.71875L124.292969 77.03125 128.152344 77.03125M134.078125 75.246094L133.753906 75.246094C133.496094 75.914063 133.351563 76.148438 132.757813 76.148438L131.210938 76.148438 130.429688 76.183594 130.429688 76.128906 131.902344 74.730469C133.085938 73.539063 133.71875 72.769531 133.71875 71.773438 133.71875 70.601563 132.839844 69.847656 131.578125 69.847656 130.496094 69.847656 129.738281 70.472656 129.390625 71.550781L129.660156 71.664063C130.070313 70.828125 130.5625 70.570313 131.289063 70.570313 132.148438 70.570313 132.679688 71.105469 132.679688 71.941406 132.679688 73.113281 132.121094 73.816406 131.019531 74.953125L129.324219 76.648438 129.324219 77.03125 133.71875 77.03125 134.078125 75.246094M139.722656 73.492188C139.722656 71.195313 138.71875 69.867188 137.277344 69.867188 135.660156 69.867188 134.800781 71.339844 134.800781 73.460938 134.800781 75.433594 135.460938 77.152344 137.257813 77.152344 139.007813 77.152344 139.722656 75.402344 139.722656 73.492188zM138.640625 73.558594C138.640625 75.703125 138.136719 76.75 137.257813 76.75 136.363281 76.75 135.871094 75.679688 135.871094 73.515625 135.871094 71.308594 136.363281 70.246094 137.242188 70.246094 138.160156 70.246094 138.640625 71.296875 138.640625 73.558594" />
  <path d="M 1267.460938 3576.55 L 1217.734375 3662.64375" transform="matrix(.1 0 0 -.1 0 422.53)" fill="none" stroke-width="7.97" stroke-linejoin="round" stroke="#000" stroke-miterlimit="10" />
  <path d="M105.453125 92.929688L105.453125 92.617188C104.425781 92.617188 104.015625 92.417969 104.015625 91.871094L104.015625 85.800781 103.691406 85.800781 101.523438 86.414063 101.523438 86.78125C101.871094 86.671875 102.441406 86.605469 102.664063 86.605469 102.941406 86.605469 103.03125 86.761719 103.03125 87.148438L103.03125 91.871094C103.03125 92.429688 102.640625 92.617188 101.59375 92.617188L101.59375 92.929688 105.453125 92.929688M107.160156 87.375C107.539063 86.78125 107.953125 86.472656 108.621094 86.472656 109.3125 86.472656 109.757813 86.851563 109.757813 87.507813 109.757813 88.410156 108.96875 89.023438 108.207031 89.023438L107.996094 89.023438 107.996094 89.449219 108.21875 89.449219C109.289063 89.449219 110.238281 90.109375 110.238281 91.101563 110.238281 92.195313 109.558594 92.515625 108.855469 92.515625 108.589844 92.515625 108.429688 92.472656 107.953125 92.226563 107.5625 92.027344 107.472656 91.972656 107.292969 91.972656 107.003906 91.972656 106.859375 92.226563 106.859375 92.460938 106.859375 92.753906 107.101563 93.074219 108.109375 93.074219 109.734375 93.074219 111.152344 92.292969 111.152344 90.765625 111.152344 89.773438 110.40625 89.183594 109.515625 88.902344L109.515625 88.867188C110.214844 88.421875 110.71875 88.011719 110.71875 87.242188 110.71875 86.390625 110.058594 85.746094 108.921875 85.746094 108.007813 85.746094 107.316406 86.257813 106.902344 87.226563L107.160156 87.375M117.023438 89.394531C117.023438 87.097656 116.015625 85.765625 114.578125 85.765625 112.960938 85.765625 112.101563 87.242188 112.101563 89.359375 112.101563 91.335938 112.757813 93.054688 114.554688 93.054688 116.308594 93.054688 117.023438 91.300781 117.023438 89.394531zM115.9375 89.460938C115.9375 91.601563 115.4375 92.648438 114.554688 92.648438 113.664063 92.648438 113.171875 91.578125 113.171875 89.414063 113.171875 87.207031 113.664063 86.148438 114.542969 86.148438 115.460938 86.148438 115.9375 87.195313 115.9375 89.460938" />
  <path d="M 1026.09375 3407.4875 L 962.1875 3483.698437" transform="matrix(.1 0 0 -.1 0 422.53)" fill="none" stroke-width="7.97" stroke-linejoin="round" stroke="#000" stroke-miterlimit="10" />
  <path d="M85.851563 112.53125L85.851563 112.21875C84.828125 112.21875 84.414063 112.015625 84.414063 111.472656L84.414063 105.402344 84.089844 105.402344 81.925781 106.015625 81.925781 106.382813C82.273438 106.269531 82.839844 106.203125 83.0625 106.203125 83.34375 106.203125 83.429688 106.359375 83.429688 106.75L83.429688 111.472656C83.429688 112.027344 83.039063 112.21875 81.992188 112.21875L81.992188 112.53125 85.851563 112.53125M91.964844 110.765625L91.964844 109.996094 90.828125 109.996094 90.828125 105.335938 90.148438 105.335938 86.746094 110.0625 86.746094 110.765625 89.835938 110.765625 89.835938 112.53125 90.828125 112.53125 90.828125 110.765625zM89.835938 109.996094L87.359375 109.996094 87.359375 109.953125 89.789063 106.550781 89.835938 106.550781 89.835938 109.996094M97.421875 108.992188C97.421875 106.695313 96.417969 105.367188 94.976563 105.367188 93.359375 105.367188 92.5 106.839844 92.5 108.960938 92.5 110.933594 93.160156 112.652344 94.957031 112.652344 96.707031 112.652344 97.421875 110.902344 97.421875 108.992188zM96.339844 109.058594C96.339844 111.203125 95.835938 112.25 94.957031 112.25 94.0625 112.25 93.570313 111.179688 93.570313 109.015625 93.570313 106.808594 94.0625 105.746094 94.945313 105.746094 95.859375 105.746094 96.339844 106.796875 96.339844 109.058594" />
  <path d="M 817.773438 3199.167187 L 741.5625 3263.073437" transform="matrix(.1 0 0 -.1 0 422.53)" fill="none" stroke-width="7.97" stroke-linejoin="round" stroke="#000" stroke-miterlimit="10" />
  <path d="M69.953125 135.230469L69.953125 134.917969C68.925781 134.917969 68.515625 134.71875 68.515625 134.171875L68.515625 128.101563 68.191406 128.101563 66.023438 128.714844 66.023438 129.082031C66.371094 128.972656 66.941406 128.90625 67.164063 128.90625 67.441406 128.90625 67.53125 129.0625 67.53125 129.449219L67.53125 134.171875C67.53125 134.726563 67.140625 134.917969 66.09375 134.917969L66.09375 135.230469 69.953125 135.230469M75.351563 129.105469L75.53125 128.203125 72.472656 128.203125 71.78125 131.113281 71.914063 131.28125C72.070313 131.28125 72.128906 131.28125 72.417969 131.304688 73.957031 131.382813 74.828125 131.839844 74.828125 133.234375 74.828125 134.390625 74.125 134.816406 73.332031 134.816406 72.617188 134.816406 72.25 134.269531 71.804688 134.269531 71.523438 134.269531 71.359375 134.492188 71.359375 134.75 71.359375 135.164063 71.78125 135.375 72.640625 135.375 74.414063 135.375 75.640625 134.503906 75.640625 132.785156 75.640625 131.035156 74.269531 130.511719 72.953125 130.410156L72.429688 130.378906 72.730469 129.105469 75.351563 129.105469M81.523438 131.695313C81.523438 129.394531 80.515625 128.066406 79.078125 128.066406 77.460938 128.066406 76.601563 129.539063 76.601563 131.660156 76.601563 133.636719 77.257813 135.351563 79.054688 135.351563 80.808594 135.351563 81.523438 133.601563 81.523438 131.695313zM80.4375 131.761719C80.4375 133.902344 79.9375 134.949219 79.054688 134.949219 78.164063 134.949219 77.671875 133.878906 77.671875 131.714844 77.671875 129.507813 78.164063 128.445313 79.042969 128.445313 79.960938 128.445313 80.4375 129.496094 80.4375 131.761719" />
  <path d="M 648.710938 2957.8 L 562.617188 3007.526562" transform="matrix(.1 0 0 -.1 0 422.53)" fill="none" stroke-width="7.97" stroke-linejoin="round" stroke="#000" stroke-miterlimit="10" />
  <path d="M58.152344 160.429688L58.152344 160.117188C57.125 160.117188 56.714844 159.917969 56.714844 159.371094L56.714844 153.300781 56.390625 153.300781 54.226563 153.914063 54.226563 154.28125C54.570313 154.171875 55.140625 154.105469 55.363281 154.105469 55.640625 154.105469 55.730469 154.261719 55.730469 154.648438L55.730469 159.371094C55.730469 159.929688 55.339844 160.117188 54.292969 160.117188L54.292969 160.429688 58.152344 160.429688M63.628906 153.222656C61.230469 153.324219 59.5 154.875 59.5 157.5625 59.5 159.203125 60.226563 160.5625 61.890625 160.5625 63.296875 160.5625 64.097656 159.683594 64.097656 158.164063 64.097656 156.703125 63.304688 155.820313 62.089844 155.820313 61.511719 155.820313 61.097656 156.066406 60.640625 156.515625L60.5625 156.503906C60.839844 154.875 62.089844 153.78125 63.652344 153.546875zM63.128906 158.253906C63.128906 159.671875 62.679688 160.175781 61.933594 160.175781 60.964844 160.175781 60.507813 159.179688 60.507813 157.796875 60.507813 156.828125 61.109375 156.46875 61.757813 156.46875 62.679688 156.46875 63.128906 157.25 63.128906 158.253906M69.722656 156.894531C69.722656 154.597656 68.71875 153.265625 67.277344 153.265625 65.660156 153.265625 64.800781 154.742188 64.800781 156.859375 64.800781 158.835938 65.460938 160.554688 67.257813 160.554688 69.007813 160.554688 69.722656 158.800781 69.722656 156.894531zM68.640625 156.960938C68.640625 159.101563 68.136719 160.148438 67.257813 160.148438 66.363281 160.148438 65.871094 159.078125 65.871094 156.914063 65.871094 154.707031 66.363281 153.648438 67.242188 153.648438 68.160156 153.648438 68.640625 154.695313 68.640625 156.960938" />
  <path d="M 524.21875 2690.76875 L 430.742188 2724.792187" transform="matrix(.1 0 0 -.1 0 422.53)" fill="none" stroke-width="7.97" stroke-linejoin="round" stroke="#000" stroke-miterlimit="10" />
  <path d="M51.054688 187.128906L51.054688 186.816406C50.027344 186.816406 49.613281 186.617188 49.613281 186.070313L49.613281 180.003906 49.289063 180.003906 47.125 180.613281 47.125 180.984375C47.472656 180.871094 48.039063 180.804688 48.265625 180.804688 48.542969 180.804688 48.632813 180.960938 48.632813 181.351563L48.632813 186.070313C48.632813 186.628906 48.242188 186.816406 47.191406 186.816406L47.191406 187.128906 51.054688 187.128906M56.976563 180.445313L56.976563 180.101563 52.714844 180.101563 52.269531 181.808594 52.613281 181.84375C52.914063 181.117188 53.003906 181.003906 53.628906 181.003906L56.117188 181.003906 53.484375 187.21875 54.367188 187.21875 56.976563 180.445313M62.621094 183.59375C62.621094 181.296875 61.617188 179.96875 60.179688 179.96875 58.5625 179.96875 57.703125 181.441406 57.703125 183.558594 57.703125 185.535156 58.359375 187.253906 60.15625 187.253906 61.90625 187.253906 62.621094 185.503906 62.621094 183.59375zM61.539063 183.660156C61.539063 185.800781 61.039063 186.851563 60.15625 186.851563 59.261719 186.851563 58.773438 185.78125 58.773438 183.617188 58.773438 181.40625 59.261719 180.347656 60.144531 180.347656 61.058594 180.347656 61.539063 181.394531 61.539063 183.660156" />
  <path d="M 447.929688 2406.159375 L 350 2423.425" transform="matrix(.1 0 0 -.1 0 422.53)" fill="none" stroke-width="7.97" stroke-linejoin="round" stroke="#000" stroke-miterlimit="10" />
  <path d="M51.054688 242.429688L51.054688 242.117188C50.027344 242.117188 49.613281 241.917969 49.613281 241.371094L49.613281 235.300781 49.289063 235.300781 47.125 235.914063 47.125 236.28125C47.472656 236.171875 48.039063 236.105469 48.265625 236.105469 48.542969 236.105469 48.632813 236.261719 48.632813 236.648438L48.632813 241.371094C48.632813 241.929688 48.242188 242.117188 47.191406 242.117188L47.191406 242.429688 51.054688 242.429688M52.75 242.574219C55.214844 242.554688 56.820313 241.136719 56.820313 238.257813 56.820313 236.605469 56.140625 235.222656 54.476563 235.222656 53.070313 235.222656 52.234375 236.105469 52.234375 237.609375 52.234375 239.082031 53.027344 239.953125 54.242188 239.953125 54.800781 239.953125 55.203125 239.71875 55.703125 239.261719L55.773438 239.273438C55.527344 241.078125 54.265625 242.074219 52.726563 242.253906zM53.207031 237.542969C53.207031 236.117188 53.707031 235.601563 54.433594 235.601563 55.414063 235.601563 55.816406 236.597656 55.816406 237.988281 55.816406 238.949219 55.226563 239.296875 54.578125 239.296875 53.652344 239.296875 53.207031 238.582031 53.207031 237.542969M62.621094 238.894531C62.621094 236.597656 61.617188 235.265625 60.179688 235.265625 58.5625 235.265625 57.703125 236.742188 57.703125 238.859375 57.703125 240.835938 58.359375 242.554688 60.15625 242.554688 61.90625 242.554688 62.621094 240.800781 62.621094 238.894531zM61.539063 238.960938C61.539063 241.101563 61.039063 242.148438 60.15625 242.148438 59.261719 242.148438 58.773438 241.078125 58.773438 238.914063 58.773438 236.707031 59.261719 235.648438 60.144531 235.648438 61.058594 235.648438 61.539063 236.695313 61.539063 238.960938" />
  <path d="M 447.929688 1819.128125 L 350 1801.823437" transform="matrix(.1 0 0 -.1 0 422.53)" fill="none" stroke-width="7.97" stroke-linejoin="round" stroke="#000" stroke-miterlimit="10" />
  <path d="M58.578125 267.445313L58.253906 267.445313C57.996094 268.113281 57.851563 268.347656 57.257813 268.347656L55.710938 268.347656 54.929688 268.382813 54.929688 268.328125 56.402344 266.933594C57.585938 265.738281 58.21875 264.96875 58.21875 263.976563 58.21875 262.804688 57.335938 262.046875 56.078125 262.046875 54.996094 262.046875 54.238281 262.671875 53.890625 263.753906L54.160156 263.863281C54.570313 263.027344 55.0625 262.769531 55.789063 262.769531 56.648438 262.769531 57.179688 263.308594 57.179688 264.140625 57.179688 265.3125 56.625 266.015625 55.519531 267.15625L53.824219 268.851563 53.824219 269.230469 58.21875 269.230469 58.578125 267.445313M64.222656 265.695313C64.222656 263.394531 63.21875 262.066406 61.777344 262.066406 60.160156 262.066406 59.300781 263.539063 59.300781 265.660156 59.300781 267.636719 59.960938 269.351563 61.757813 269.351563 63.507813 269.351563 64.222656 267.601563 64.222656 265.695313zM63.140625 265.761719C63.140625 267.902344 62.636719 268.949219 61.757813 268.949219 60.863281 268.949219 60.371094 267.878906 60.371094 265.714844 60.371094 263.507813 60.863281 262.445313 61.742188 262.445313 62.660156 262.445313 63.140625 263.496094 63.140625 265.761719M69.722656 265.695313C69.722656 263.394531 68.71875 262.066406 67.277344 262.066406 65.660156 262.066406 64.800781 263.539063 64.800781 265.660156 64.800781 267.636719 65.460938 269.351563 67.257813 269.351563 69.007813 269.351563 69.722656 267.601563 69.722656 265.695313zM68.640625 265.761719C68.640625 267.902344 68.136719 268.949219 67.257813 268.949219 66.363281 268.949219 65.871094 267.878906 65.871094 265.714844 65.871094 263.507813 66.363281 262.445313 67.242188 262.445313 68.160156 262.445313 68.640625 263.496094 68.640625 265.761719" />
  <path d="M 524.21875 1534.479687 L 430.742188 1500.45625" transform="matrix(.1 0 0 -.1 0 422.53)" fill="none" stroke-width="7.97" stroke-linejoin="round" stroke="#000" stroke-miterlimit="10" />
  <path d="M70.375 292.546875L70.054688 292.546875C69.796875 293.214844 69.652344 293.449219 69.058594 293.449219L67.507813 293.449219 66.726563 293.480469 66.726563 293.425781 68.203125 292.03125C69.382813 290.839844 70.019531 290.070313 70.019531 289.074219 70.019531 287.902344 69.136719 287.144531 67.878906 287.144531 66.796875 287.144531 66.039063 287.769531 65.691406 288.851563L65.960938 288.964844C66.371094 288.128906 66.863281 287.871094 67.585938 287.871094 68.445313 287.871094 68.980469 288.40625 68.980469 289.242188 68.980469 290.414063 68.421875 291.117188 67.320313 292.253906L65.625 293.949219 65.625 294.328125 70.019531 294.328125 70.375 292.546875M75.453125 294.328125L75.453125 294.015625C74.425781 294.015625 74.015625 293.816406 74.015625 293.269531L74.015625 287.203125 73.691406 287.203125 71.523438 287.8125 71.523438 288.183594C71.871094 288.070313 72.441406 288.003906 72.664063 288.003906 72.941406 288.003906 73.03125 288.160156 73.03125 288.550781L73.03125 293.269531C73.03125 293.828125 72.640625 294.015625 71.59375 294.015625L71.59375 294.328125 75.453125 294.328125M81.523438 290.792969C81.523438 288.496094 80.515625 287.167969 79.078125 287.167969 77.460938 287.167969 76.601563 288.640625 76.601563 290.761719 76.601563 292.734375 77.257813 294.453125 79.054688 294.453125 80.808594 294.453125 81.523438 292.703125 81.523438 290.792969zM80.4375 290.859375C80.4375 293.003906 79.9375 294.050781 79.054688 294.050781 78.164063 294.050781 77.671875 292.980469 77.671875 290.816406 77.671875 288.605469 78.164063 287.546875 79.042969 287.546875 79.960938 287.546875 80.4375 288.597656 80.4375 290.859375" />
  <path d="M 648.710938 1267.448437 L 562.617188 1217.721875" transform="matrix(.1 0 0 -.1 0 422.53)" fill="none" stroke-width="7.97" stroke-linejoin="round" stroke="#000" stroke-miterlimit="10" />
  <path d="M86.277344 315.246094L85.953125 315.246094C85.695313 315.914063 85.550781 316.148438 84.960938 316.148438L83.410156 316.148438 82.628906 316.183594 82.628906 316.128906 84.101563 314.730469C85.285156 313.539063 85.917969 312.769531 85.917969 311.773438 85.917969 310.601563 85.039063 309.847656 83.777344 309.847656 82.695313 309.847656 81.9375 310.472656 81.589844 311.550781L81.859375 311.664063C82.273438 310.828125 82.761719 310.570313 83.488281 310.570313 84.347656 310.570313 84.882813 311.105469 84.882813 311.941406 84.882813 313.113281 84.324219 313.816406 83.21875 314.953125L81.523438 316.648438 81.523438 317.03125 85.917969 317.03125 86.277344 315.246094M91.777344 315.246094L91.453125 315.246094C91.195313 315.914063 91.050781 316.148438 90.460938 316.148438L88.910156 316.148438 88.128906 316.183594 88.128906 316.128906 89.601563 314.730469C90.785156 313.539063 91.417969 312.769531 91.417969 311.773438 91.417969 310.601563 90.539063 309.847656 89.277344 309.847656 88.195313 309.847656 87.4375 310.472656 87.089844 311.550781L87.359375 311.664063C87.773438 310.828125 88.261719 310.570313 88.988281 310.570313 89.847656 310.570313 90.382813 311.105469 90.382813 311.941406 90.382813 313.113281 89.824219 313.816406 88.71875 314.953125L87.023438 316.648438 87.023438 317.03125 91.417969 317.03125 91.777344 315.246094M97.421875 313.492188C97.421875 311.195313 96.417969 309.867188 94.976563 309.867188 93.359375 309.867188 92.5 311.339844 92.5 313.460938 92.5 315.433594 93.160156 317.152344 94.957031 317.152344 96.707031 317.152344 97.421875 315.402344 97.421875 313.492188zM96.339844 313.558594C96.339844 315.703125 95.835938 316.75 94.957031 316.75 94.0625 316.75 93.570313 315.679688 93.570313 313.515625 93.570313 311.308594 94.0625 310.246094 94.945313 310.246094 95.859375 310.246094 96.339844 311.296875 96.339844 313.558594" />
  <path d="M 817.773438 1026.08125 L 741.5625 962.175" transform="matrix(.1 0 0 -.1 0 422.53)" fill="none" stroke-width="7.97" stroke-linejoin="round" stroke="#000" stroke-miterlimit="10" />
  <path d="M105.878906 334.84375L105.554688 334.84375C105.296875 335.515625 105.152344 335.75 104.558594 335.75L103.007813 335.75 102.226563 335.78125 102.226563 335.726563 103.703125 334.332031C104.882813 333.136719 105.519531 332.367188 105.519531 331.375 105.519531 330.203125 104.636719 329.445313 103.378906 329.445313 102.296875 329.445313 101.539063 330.070313 101.191406 331.152344L101.460938 331.265625C101.871094 330.425781 102.363281 330.171875 103.089844 330.171875 103.945313 330.171875 104.480469 330.707031 104.480469 331.542969 104.480469 332.714844 103.921875 333.417969 102.820313 334.554688L101.121094 336.25 101.121094 336.628906 105.519531 336.628906 105.878906 334.84375M107.160156 331.074219C107.539063 330.484375 107.953125 330.171875 108.621094 330.171875 109.3125 330.171875 109.757813 330.550781 109.757813 331.207031 109.757813 332.109375 108.96875 332.726563 108.207031 332.726563L107.996094 332.726563 107.996094 333.148438 108.21875 333.148438C109.289063 333.148438 110.238281 333.808594 110.238281 334.800781 110.238281 335.894531 109.558594 336.21875 108.855469 336.21875 108.589844 336.21875 108.429688 336.171875 107.953125 335.925781 107.5625 335.726563 107.472656 335.671875 107.292969 335.671875 107.003906 335.671875 106.859375 335.925781 106.859375 336.160156 106.859375 336.453125 107.101563 336.773438 108.109375 336.773438 109.734375 336.773438 111.152344 335.992188 111.152344 334.464844 111.152344 333.472656 110.40625 332.882813 109.515625 332.601563L109.515625 332.570313C110.214844 332.121094 110.71875 331.710938 110.71875 330.941406 110.71875 330.09375 110.058594 329.445313 108.921875 329.445313 108.007813 329.445313 107.316406 329.957031 106.902344 330.929688L107.160156 331.074219M117.023438 333.09375C117.023438 330.796875 116.015625 329.46875 114.578125 329.46875 112.960938 329.46875 112.101563 330.941406 112.101563 333.058594 112.101563 335.035156 112.757813 336.753906 114.554688 336.753906 116.308594 336.753906 117.023438 335 117.023438 333.09375zM115.9375 333.160156C115.9375 335.300781 115.4375 336.351563 114.554688 336.351563 113.664063 336.351563 113.171875 335.28125 113.171875 333.117188 113.171875 330.90625 113.664063 329.847656 114.542969 329.847656 115.460938 329.847656 115.9375 330.894531 115.9375 333.160156" />
  <path d="M 1026.09375 817.760937 L 962.1875 741.589062" transform="matrix(.1 0 0 -.1 0 422.53)" fill="none" stroke-width="7.97" stroke-linejoin="round" stroke="#000" stroke-miterlimit="10" />
  <path d="M128.578125 350.84375L128.253906 350.84375C127.996094 351.515625 127.851563 351.75 127.257813 351.75L125.710938 351.75 124.929688 351.78125 124.929688 351.726563 126.402344 350.332031C127.585938 349.136719 128.21875 348.367188 128.21875 347.375 128.21875 346.203125 127.339844 345.445313 126.078125 345.445313 124.996094 345.445313 124.238281 346.070313 123.890625 347.152344L124.160156 347.265625C124.570313 346.425781 125.0625 346.171875 125.789063 346.171875 126.648438 346.171875 127.179688 346.707031 127.179688 347.542969 127.179688 348.714844 126.621094 349.417969 125.519531 350.554688L123.824219 352.25 123.824219 352.628906 128.21875 352.628906 128.578125 350.84375M134.265625 350.867188L134.265625 350.097656 133.128906 350.097656 133.128906 345.433594 132.449219 345.433594 129.046875 350.164063 129.046875 350.867188 132.136719 350.867188 132.136719 352.628906 133.128906 352.628906 133.128906 350.867188zM132.136719 350.097656L129.660156 350.097656 129.660156 350.054688 132.089844 346.648438 132.136719 346.648438 132.136719 350.097656M139.722656 349.09375C139.722656 346.796875 138.71875 345.46875 137.277344 345.46875 135.660156 345.46875 134.800781 346.941406 134.800781 349.058594 134.800781 351.035156 135.460938 352.753906 137.257813 352.753906 139.007813 352.753906 139.722656 351 139.722656 349.09375zM138.640625 349.160156C138.640625 351.300781 138.136719 352.351563 137.257813 352.351563 136.363281 352.351563 135.871094 351.28125 135.871094 349.117188 135.871094 346.90625 136.363281 345.847656 137.242188 345.847656 138.160156 345.847656 138.640625 346.894531 138.640625 349.160156" />
  <path d="M 1267.460938 648.7375 L 1217.734375 562.604687" transform="matrix(.1 0 0 -.1 0 422.53)" fill="none" stroke-width="7.97" stroke-linejoin="round" stroke="#000" stroke-miterlimit="10" />
  <path d="M153.675781 362.546875L153.351563 362.546875C153.097656 363.214844 152.953125 363.449219 152.359375 363.449219L150.808594 363.449219 150.027344 363.480469 150.027344 363.425781 151.503906 362.03125C152.683594 360.835938 153.320313 360.070313 153.320313 359.074219 153.320313 357.902344 152.4375 357.144531 151.179688 357.144531 150.09375 357.144531 149.339844 357.769531 148.992188 358.851563L149.257813 358.964844C149.671875 358.125 150.164063 357.871094 150.886719 357.871094 151.746094 357.871094 152.28125 358.40625 152.28125 359.242188 152.28125 360.414063 151.722656 361.117188 150.621094 362.253906L148.921875 363.949219 148.921875 364.328125 153.320313 364.328125 153.675781 362.546875M158.753906 358.203125L158.929688 357.300781 155.871094 357.300781 155.183594 360.210938 155.316406 360.378906C155.472656 360.378906 155.527344 360.378906 155.820313 360.402344 157.359375 360.480469 158.226563 360.9375 158.226563 362.332031 158.226563 363.492188 157.523438 363.917969 156.734375 363.917969 156.019531 363.917969 155.648438 363.371094 155.203125 363.371094 154.925781 363.371094 154.757813 363.59375 154.757813 363.851563 154.757813 364.261719 155.183594 364.476563 156.039063 364.476563 157.816406 364.476563 159.042969 363.605469 159.042969 361.886719 159.042969 360.132813 157.671875 359.609375 156.351563 359.511719L155.828125 359.476563 156.128906 358.203125 158.753906 358.203125M164.820313 360.792969C164.820313 358.496094 163.816406 357.167969 162.378906 357.167969 160.761719 357.167969 159.902344 358.640625 159.902344 360.757813 159.902344 362.734375 160.558594 364.453125 162.355469 364.453125 164.109375 364.453125 164.820313 362.703125 164.820313 360.792969zM163.738281 360.859375C163.738281 363 163.238281 364.050781 162.355469 364.050781 161.464844 364.050781 160.972656 362.980469 160.972656 360.816406 160.972656 358.605469 161.464844 357.546875 162.34375 357.546875 163.257813 357.546875 163.738281 358.59375 163.738281 360.859375" />
  <path d="M 1534.492188 524.20625 L 1500.46875 430.76875" transform="matrix(.1 0 0 -.1 0 422.53)" fill="none" stroke-width="7.97" stroke-linejoin="round" stroke="#000" stroke-miterlimit="10" />
  <path d="M180.476563 369.746094L180.152344 369.746094C179.898438 370.414063 179.753906 370.648438 179.160156 370.648438L177.609375 370.648438 176.828125 370.679688 176.828125 370.625 178.300781 369.230469C179.484375 368.039063 180.117188 367.269531 180.117188 366.273438 180.117188 365.101563 179.238281 364.34375 177.976563 364.34375 176.894531 364.34375 176.136719 364.96875 175.789063 366.050781L176.058594 366.164063C176.472656 365.328125 176.964844 365.070313 177.6875 365.070313 178.546875 365.070313 179.082031 365.605469 179.082031 366.441406 179.082031 367.613281 178.523438 368.316406 177.421875 369.453125L175.722656 371.148438 175.722656 371.53125 180.117188 371.53125 180.476563 369.746094M185.53125 364.324219C183.132813 364.421875 181.402344 365.972656 181.402344 368.664063 181.402344 370.304688 182.128906 371.664063 183.789063 371.664063 185.195313 371.664063 185.996094 370.78125 185.996094 369.265625 185.996094 367.804688 185.207031 366.921875 183.992188 366.921875 183.410156 366.921875 182.996094 367.167969 182.539063 367.613281L182.464844 367.601563C182.742188 365.972656 183.992188 364.882813 185.550781 364.648438zM185.027344 369.355469C185.027344 370.769531 184.582031 371.273438 183.835938 371.273438 182.863281 371.273438 182.40625 370.28125 182.40625 368.898438 182.40625 367.925781 183.007813 367.570313 183.65625 367.570313 184.582031 367.570313 185.027344 368.351563 185.027344 369.355469M191.621094 367.992188C191.621094 365.695313 190.617188 364.367188 189.179688 364.367188 187.5625 364.367188 186.703125 365.839844 186.703125 367.960938 186.703125 369.933594 187.359375 371.652344 189.15625 371.652344 190.90625 371.652344 191.621094 369.902344 191.621094 367.992188zM190.539063 368.058594C190.539063 370.203125 190.039063 371.25 189.15625 371.25 188.261719 371.25 187.773438 370.179688 187.773438 368.015625 187.773438 365.804688 188.261719 364.746094 189.144531 364.746094 190.058594 364.746094 190.539063 365.796875 190.539063 368.058594" />
  <path d="M 1819.101563 447.917187 L 1801.835938 350.026562" transform="matrix(.1 0 0 -.1 0 422.53)" fill="none" stroke-width="7.97" stroke-linejoin="round" stroke="#000" stroke-miterlimit="10" />
  <path d="M235.777344 369.746094L235.453125 369.746094C235.195313 370.414063 235.050781 370.648438 234.460938 370.648438L232.910156 370.648438 232.128906 370.679688 232.128906 370.625 233.601563 369.230469C234.785156 368.039063 235.417969 367.269531 235.417969 366.273438 235.417969 365.101563 234.539063 364.34375 233.277344 364.34375 232.195313 364.34375 231.4375 364.96875 231.089844 366.050781L231.359375 366.164063C231.773438 365.328125 232.261719 365.070313 232.988281 365.070313 233.847656 365.070313 234.382813 365.605469 234.382813 366.441406 234.382813 367.613281 233.824219 368.316406 232.71875 369.453125L231.023438 371.148438 231.023438 371.53125 235.417969 371.53125 235.777344 369.746094M241.097656 369.855469C241.097656 368.964844 240.695313 368.429688 239.390625 367.636719L239.390625 367.601563C240.429688 367.035156 240.828125 366.664063 240.828125 365.851563 240.828125 364.96875 239.984375 364.3125 238.878906 364.3125 237.648438 364.3125 236.757813 364.945313 236.757813 365.960938 236.757813 366.722656 237.003906 367.179688 238.140625 367.96875L238.140625 368.003906C237.105469 368.695313 236.613281 369.054688 236.613281 369.945313 236.613281 371.082031 237.550781 371.664063 238.84375 371.664063 240.171875 371.664063 241.097656 371.027344 241.097656 369.855469zM240.003906 365.828125C240.003906 366.542969 239.78125 366.976563 239.046875 367.421875 238.054688 366.820313 237.628906 366.421875 237.628906 365.761719 237.628906 365.082031 238.097656 364.679688 238.855469 364.679688 239.570313 364.679688 240.003906 365.09375 240.003906 365.828125zM238.476563 368.183594C239.828125 369.054688 240.160156 369.464844 240.160156 370.179688 240.160156 370.9375 239.582031 371.316406 238.890625 371.316406 238.039063 371.316406 237.484375 370.859375 237.484375 369.855469 237.484375 369.085938 237.839844 368.695313 238.476563 368.183594M246.921875 367.992188C246.921875 365.695313 245.917969 364.367188 244.476563 364.367188 242.859375 364.367188 242.003906 365.839844 242.003906 367.960938 242.003906 369.933594 242.660156 371.652344 244.457031 371.652344 246.207031 371.652344 246.921875 369.902344 246.921875 367.992188zM245.839844 368.058594C245.839844 370.203125 245.339844 371.25 244.457031 371.25 243.5625 371.25 243.070313 370.179688 243.070313 368.015625 243.070313 365.804688 243.5625 364.746094 244.445313 364.746094 245.359375 364.746094 245.839844 365.796875 245.839844 368.058594" />
  <path d="M 2406.132813 447.917187 L 2423.4375 350.026562" transform="matrix(.1 0 0 -.1 0 422.53)" fill="none" stroke-width="7.97" stroke-linejoin="round" stroke="#000" stroke-miterlimit="10" />
  <path d="M262.578125 362.546875L262.253906 362.546875C261.996094 363.214844 261.851563 363.449219 261.257813 363.449219L259.710938 363.449219 258.929688 363.480469 258.929688 363.425781 260.402344 362.03125C261.585938 360.835938 262.21875 360.070313 262.21875 359.074219 262.21875 357.902344 261.339844 357.144531 260.078125 357.144531 258.996094 357.144531 258.238281 357.769531 257.890625 358.851563L258.160156 358.964844C258.570313 358.125 259.0625 357.871094 259.789063 357.871094 260.648438 357.871094 261.179688 358.40625 261.179688 359.242188 261.179688 360.414063 260.621094 361.117188 259.519531 362.253906L257.824219 363.949219 257.824219 364.328125 262.21875 364.328125 262.578125 362.546875M263.847656 364.476563C266.3125 364.453125 267.921875 363.035156 267.921875 360.15625 267.921875 358.507813 267.238281 357.125 265.578125 357.125 264.171875 357.125 263.335938 358.003906 263.335938 359.511719 263.335938 360.984375 264.128906 361.851563 265.34375 361.851563 265.902344 361.851563 266.304688 361.617188 266.804688 361.160156L266.871094 361.171875C266.628906 362.980469 265.367188 363.972656 263.828125 364.152344zM264.304688 359.445313C264.304688 358.015625 264.808594 357.5 265.53125 357.5 266.515625 357.5 266.914063 358.496094 266.914063 359.890625 266.914063 360.847656 266.324219 361.195313 265.679688 361.195313 264.753906 361.195313 264.304688 360.480469 264.304688 359.445313M273.722656 360.792969C273.722656 358.496094 272.71875 357.167969 271.277344 357.167969 269.660156 357.167969 268.800781 358.640625 268.800781 360.757813 268.800781 362.734375 269.460938 364.453125 271.257813 364.453125 273.007813 364.453125 273.722656 362.703125 273.722656 360.792969zM272.640625 360.859375C272.640625 363 272.136719 364.050781 271.257813 364.050781 270.363281 364.050781 269.871094 362.980469 269.871094 360.816406 269.871094 358.605469 270.363281 357.546875 271.242188 357.546875 272.160156 357.546875 272.640625 358.59375 272.640625 360.859375" />
  <path d="M 2690.78125 524.20625 L 2724.804688 430.76875" transform="matrix(.1 0 0 -.1 0 422.53)" fill="none" stroke-width="7.97" stroke-linejoin="round" stroke="#000" stroke-miterlimit="10" />
  <path d="M283.460938 347.074219C283.839844 346.484375 284.253906 346.171875 284.921875 346.171875 285.613281 346.171875 286.058594 346.550781 286.058594 347.207031 286.058594 348.109375 285.265625 348.726563 284.507813 348.726563L284.296875 348.726563 284.296875 349.148438 284.519531 349.148438C285.589844 349.148438 286.539063 349.808594 286.539063 350.800781 286.539063 351.894531 285.859375 352.21875 285.15625 352.21875 284.886719 352.21875 284.730469 352.171875 284.253906 351.925781 283.859375 351.726563 283.773438 351.671875 283.59375 351.671875 283.304688 351.671875 283.15625 351.925781 283.15625 352.160156 283.15625 352.453125 283.402344 352.773438 284.40625 352.773438 286.035156 352.773438 287.453125 351.992188 287.453125 350.464844 287.453125 349.472656 286.707031 348.882813 285.8125 348.601563L285.8125 348.570313C286.515625 348.121094 287.019531 347.710938 287.019531 346.941406 287.019531 346.09375 286.359375 345.445313 285.222656 345.445313 284.308594 345.445313 283.617188 345.957031 283.203125 346.929688L283.460938 347.074219M293.222656 349.09375C293.222656 346.796875 292.21875 345.46875 290.777344 345.46875 289.160156 345.46875 288.300781 346.941406 288.300781 349.058594 288.300781 351.035156 288.960938 352.753906 290.757813 352.753906 292.507813 352.753906 293.222656 351 293.222656 349.09375zM292.140625 349.160156C292.140625 351.300781 291.636719 352.351563 290.757813 352.351563 289.863281 352.351563 289.371094 351.28125 289.371094 349.117188 289.371094 346.90625 289.863281 345.847656 290.742188 345.847656 291.660156 345.847656 292.140625 346.894531 292.140625 349.160156M298.820313 349.09375C298.820313 346.796875 297.816406 345.46875 296.378906 345.46875 294.761719 345.46875 293.902344 346.941406 293.902344 349.058594 293.902344 351.035156 294.558594 352.753906 296.355469 352.753906 298.109375 352.753906 298.820313 351 298.820313 349.09375zM297.738281 349.160156C297.738281 351.300781 297.238281 352.351563 296.355469 352.351563 295.464844 352.351563 294.972656 351.28125 294.972656 349.117188 294.972656 346.90625 295.464844 345.847656 296.34375 345.847656 297.257813 345.847656 297.738281 346.894531 297.738281 349.160156" />
  <path d="M 2957.8125 648.7375 L 3007.539063 562.604687" transform="matrix(.1 0 0 -.1 0 422.53)" fill="none" stroke-width="7.97" stroke-linejoin="round" stroke="#000" stroke-miterlimit="10" />
  <path d="M306.160156 331.074219C306.539063 330.484375 306.953125 330.171875 307.621094 330.171875 308.3125 330.171875 308.757813 330.550781 308.757813 331.207031 308.757813 332.109375 307.96875 332.726563 307.207031 332.726563L306.996094 332.726563 306.996094 333.148438 307.21875 333.148438C308.289063 333.148438 309.238281 333.808594 309.238281 334.800781 309.238281 335.894531 308.558594 336.21875 307.855469 336.21875 307.589844 336.21875 307.429688 336.171875 306.953125 335.925781 306.5625 335.726563 306.472656 335.671875 306.292969 335.671875 306.003906 335.671875 305.859375 335.925781 305.859375 336.160156 305.859375 336.453125 306.101563 336.773438 307.109375 336.773438 308.734375 336.773438 310.152344 335.992188 310.152344 334.464844 310.152344 333.472656 309.40625 332.882813 308.515625 332.601563L308.515625 332.570313C309.214844 332.121094 309.71875 331.710938 309.71875 330.941406 309.71875 330.09375 309.058594 329.445313 307.921875 329.445313 307.007813 329.445313 306.316406 329.957031 305.902344 330.929688L306.160156 331.074219M315.554688 336.628906L315.554688 336.316406C314.527344 336.316406 314.113281 336.117188 314.113281 335.570313L314.113281 329.5 313.789063 329.5 311.625 330.113281 311.625 330.484375C311.972656 330.371094 312.539063 330.304688 312.765625 330.304688 313.042969 330.304688 313.132813 330.460938 313.132813 330.851563L313.132813 335.570313C313.132813 336.128906 312.742188 336.316406 311.691406 336.316406L311.691406 336.628906 315.554688 336.628906M321.523438 333.09375C321.523438 330.796875 320.515625 329.46875 319.078125 329.46875 317.460938 329.46875 316.601563 330.941406 316.601563 333.058594 316.601563 335.035156 317.257813 336.753906 319.054688 336.753906 320.808594 336.753906 321.523438 335 321.523438 333.09375zM320.4375 333.160156C320.4375 335.300781 319.9375 336.351563 319.054688 336.351563 318.164063 336.351563 317.671875 335.28125 317.671875 333.117188 317.671875 330.90625 318.164063 329.847656 319.042969 329.847656 319.960938 329.847656 320.4375 330.894531 320.4375 333.160156" />
  <path d="M 3199.179688 817.760937 L 3263.085938 741.589062" transform="matrix(.1 0 0 -.1 0 422.53)" fill="none" stroke-width="7.97" stroke-linejoin="round" stroke="#000" stroke-miterlimit="10" />
  <path d="M325.757813 311.472656C326.140625 310.882813 326.550781 310.570313 327.21875 310.570313 327.914063 310.570313 328.359375 310.949219 328.359375 311.609375 328.359375 312.511719 327.566406 313.125 326.808594 313.125L326.597656 313.125 326.597656 313.550781 326.820313 313.550781C327.890625 313.550781 328.839844 314.207031 328.839844 315.199219 328.839844 316.292969 328.15625 316.617188 327.453125 316.617188 327.1875 316.617188 327.03125 316.570313 326.550781 316.328125 326.160156 316.128906 326.070313 316.070313 325.894531 316.070313 325.601563 316.070313 325.457031 316.328125 325.457031 316.5625 325.457031 316.851563 325.703125 317.175781 326.707031 317.175781 328.335938 317.175781 329.753906 316.394531 329.753906 314.867188 329.753906 313.871094 329.007813 313.28125 328.113281 313.003906L328.113281 312.96875C328.816406 312.523438 329.320313 312.109375 329.320313 311.339844 329.320313 310.492188 328.660156 309.847656 327.523438 309.847656 326.609375 309.847656 325.914063 310.359375 325.503906 311.328125L325.757813 311.472656M335.578125 315.246094L335.253906 315.246094C334.996094 315.914063 334.851563 316.148438 334.257813 316.148438L332.710938 316.148438 331.929688 316.183594 331.929688 316.128906 333.402344 314.730469C334.585938 313.539063 335.21875 312.769531 335.21875 311.773438 335.21875 310.601563 334.339844 309.847656 333.078125 309.847656 331.996094 309.847656 331.238281 310.472656 330.890625 311.550781L331.160156 311.664063C331.570313 310.828125 332.0625 310.570313 332.789063 310.570313 333.648438 310.570313 334.179688 311.105469 334.179688 311.941406 334.179688 313.113281 333.621094 313.816406 332.519531 314.953125L330.824219 316.648438 330.824219 317.03125 335.21875 317.03125 335.578125 315.246094M341.121094 313.492188C341.121094 311.195313 340.117188 309.867188 338.679688 309.867188 337.0625 309.867188 336.203125 311.339844 336.203125 313.460938 336.203125 315.433594 336.859375 317.152344 338.65625 317.152344 340.40625 317.152344 341.121094 315.402344 341.121094 313.492188zM340.039063 313.558594C340.039063 315.703125 339.539063 316.75 338.65625 316.75 337.761719 316.75 337.273438 315.679688 337.273438 313.515625 337.273438 311.308594 337.761719 310.246094 338.644531 310.246094 339.558594 310.246094 340.039063 311.296875 340.039063 313.558594" />
  <path d="M 3407.5 1026.08125 L 3483.671875 962.175" transform="matrix(.1 0 0 -.1 0 422.53)" fill="none" stroke-width="7.97" stroke-linejoin="round" stroke="#000" stroke-miterlimit="10" />
  <path d="M341.660156 288.773438C342.039063 288.183594 342.453125 287.871094 343.121094 287.871094 343.8125 287.871094 344.257813 288.25 344.257813 288.90625 344.257813 289.8125 343.46875 290.425781 342.707031 290.425781L342.496094 290.425781 342.496094 290.847656 342.71875 290.847656C343.789063 290.847656 344.738281 291.507813 344.738281 292.5 344.738281 293.59375 344.058594 293.917969 343.355469 293.917969 343.089844 293.917969 342.929688 293.871094 342.453125 293.628906 342.0625 293.425781 341.972656 293.371094 341.792969 293.371094 341.503906 293.371094 341.359375 293.628906 341.359375 293.859375 341.359375 294.152344 341.601563 294.476563 342.609375 294.476563 344.234375 294.476563 345.652344 293.695313 345.652344 292.164063 345.652344 291.171875 344.90625 290.582031 344.015625 290.300781L344.015625 290.269531C344.714844 289.820313 345.21875 289.410156 345.21875 288.640625 345.21875 287.792969 344.558594 287.144531 343.421875 287.144531 342.507813 287.144531 341.816406 287.65625 341.402344 288.628906L341.660156 288.773438M347.257813 288.773438C347.640625 288.183594 348.050781 287.871094 348.71875 287.871094 349.414063 287.871094 349.859375 288.25 349.859375 288.90625 349.859375 289.8125 349.066406 290.425781 348.308594 290.425781L348.097656 290.425781 348.097656 290.847656 348.320313 290.847656C349.390625 290.847656 350.339844 291.507813 350.339844 292.5 350.339844 293.59375 349.65625 293.917969 348.953125 293.917969 348.6875 293.917969 348.53125 293.871094 348.050781 293.628906 347.660156 293.425781 347.570313 293.371094 347.394531 293.371094 347.101563 293.371094 346.957031 293.628906 346.957031 293.859375 346.957031 294.152344 347.203125 294.476563 348.207031 294.476563 349.835938 294.476563 351.253906 293.695313 351.253906 292.164063 351.253906 291.171875 350.507813 290.582031 349.613281 290.300781L349.613281 290.269531C350.316406 289.820313 350.820313 289.410156 350.820313 288.640625 350.820313 287.792969 350.160156 287.144531 349.023438 287.144531 348.109375 287.144531 347.414063 287.65625 347.003906 288.628906L347.257813 288.773438M357.023438 290.792969C357.023438 288.496094 356.015625 287.167969 354.578125 287.167969 352.960938 287.167969 352.101563 288.640625 352.101563 290.761719 352.101563 292.734375 352.757813 294.453125 354.554688 294.453125 356.308594 294.453125 357.023438 292.703125 357.023438 290.792969zM355.9375 290.859375C355.9375 293.003906 355.4375 294.050781 354.554688 294.050781 353.664063 294.050781 353.171875 292.980469 353.171875 290.816406 353.171875 288.605469 353.664063 287.546875 354.542969 287.546875 355.460938 287.546875 355.9375 288.597656 355.9375 290.859375" />
  <path d="M 3576.523438 1267.448437 L 3662.65625 1217.721875" transform="matrix(.1 0 0 -.1 0 422.53)" fill="none" stroke-width="7.97" stroke-linejoin="round" stroke="#000" stroke-miterlimit="10" />
  <path d="M353.359375 263.675781C353.738281 263.082031 354.152344 262.769531 354.820313 262.769531 355.511719 262.769531 355.960938 263.148438 355.960938 263.808594 355.960938 264.710938 355.167969 265.324219 354.40625 265.324219L354.195313 265.324219 354.195313 265.75 354.417969 265.75C355.492188 265.75 356.4375 266.40625 356.4375 267.398438 356.4375 268.492188 355.757813 268.816406 355.054688 268.816406 354.789063 268.816406 354.632813 268.773438 354.152344 268.527344 353.761719 268.328125 353.671875 268.269531 353.492188 268.269531 353.203125 268.269531 353.058594 268.527344 353.058594 268.761719 353.058594 269.050781 353.304688 269.375 354.308594 269.375 355.9375 269.375 357.351563 268.59375 357.351563 267.066406 357.351563 266.070313 356.605469 265.480469 355.714844 265.203125L355.714844 265.167969C356.414063 264.722656 356.917969 264.308594 356.917969 263.539063 356.917969 262.691406 356.257813 262.046875 355.121094 262.046875 354.207031 262.046875 353.515625 262.558594 353.101563 263.527344L353.359375 263.675781M363.367188 267.46875L363.367188 266.695313 362.226563 266.695313 362.226563 262.035156 361.546875 262.035156 358.144531 266.765625 358.144531 267.46875 361.234375 267.46875 361.234375 269.230469 362.226563 269.230469 362.226563 267.46875zM361.234375 266.695313L358.757813 266.695313 358.757813 266.652344 361.191406 263.25 361.234375 263.25 361.234375 266.695313M368.722656 265.695313C368.722656 263.394531 367.71875 262.066406 366.277344 262.066406 364.660156 262.066406 363.800781 263.539063 363.800781 265.660156 363.800781 267.636719 364.460938 269.351563 366.257813 269.351563 368.007813 269.351563 368.722656 267.601563 368.722656 265.695313zM367.640625 265.761719C367.640625 267.902344 367.136719 268.949219 366.257813 268.949219 365.363281 268.949219 364.871094 267.878906 364.871094 265.714844 364.871094 263.507813 365.363281 262.445313 366.242188 262.445313 367.160156 262.445313 367.640625 263.496094 367.640625 265.761719" />
  <path d="M 3701.054688 1534.479687 L 3794.492188 1500.45625" transform="matrix(.1 0 0 -.1 0 422.53)" fill="none" stroke-width="7.97" stroke-linejoin="round" stroke="#000" stroke-miterlimit="10" />
  <path d="M360.558594 236.875C360.9375 236.28125 361.351563 235.972656 362.019531 235.972656 362.714844 235.972656 363.160156 236.351563 363.160156 237.007813 363.160156 237.910156 362.367188 238.523438 361.609375 238.523438L361.398438 238.523438 361.398438 238.949219 361.617188 238.949219C362.691406 238.949219 363.640625 239.609375 363.640625 240.601563 363.640625 241.695313 362.957031 242.015625 362.253906 242.015625 361.988281 242.015625 361.832031 241.972656 361.351563 241.726563 360.960938 241.527344 360.871094 241.472656 360.695313 241.472656 360.402344 241.472656 360.257813 241.726563 360.257813 241.960938 360.257813 242.253906 360.503906 242.574219 361.507813 242.574219 363.136719 242.574219 364.554688 241.792969 364.554688 240.265625 364.554688 239.273438 363.804688 238.683594 362.914063 238.402344L362.914063 238.367188C363.617188 237.921875 364.117188 237.511719 364.117188 236.742188 364.117188 235.890625 363.460938 235.246094 362.320313 235.246094 361.40625 235.246094 360.714844 235.757813 360.304688 236.726563L360.558594 236.875M369.851563 236.304688L370.03125 235.402344 366.972656 235.402344 366.28125 238.3125 366.414063 238.480469C366.570313 238.480469 366.628906 238.480469 366.917969 238.503906 368.457031 238.582031 369.328125 239.039063 369.328125 240.433594 369.328125 241.59375 368.625 242.015625 367.832031 242.015625 367.117188 242.015625 366.75 241.472656 366.304688 241.472656 366.023438 241.472656 365.859375 241.695313 365.859375 241.949219 365.859375 242.363281 366.28125 242.574219 367.140625 242.574219 368.914063 242.574219 370.140625 241.703125 370.140625 239.984375 370.140625 238.234375 368.769531 237.710938 367.453125 237.609375L366.929688 237.578125 367.230469 236.304688 369.851563 236.304688M375.921875 238.894531C375.921875 236.597656 374.917969 235.265625 373.476563 235.265625 371.859375 235.265625 371.003906 236.742188 371.003906 238.859375 371.003906 240.835938 371.660156 242.554688 373.457031 242.554688 375.207031 242.554688 375.921875 240.800781 375.921875 238.894531zM374.839844 238.960938C374.839844 241.101563 374.339844 242.148438 373.457031 242.148438 372.5625 242.148438 372.070313 241.078125 372.070313 238.914063 372.070313 236.707031 372.5625 235.648438 373.445313 235.648438 374.359375 235.648438 374.839844 236.695313 374.839844 238.960938" />
  <path d="M3777.304688 1819.128125L3875.234375 1801.823437M3852.460938 2142.995312L3902.148438 2143.854687M3851.640625 2173.346875L3901.328125 2175.065625M3850.3125 2203.698437L3899.960938 2206.315625M3848.476563 2234.010937L3898.046875 2237.4875M3846.054688 2264.284375L3895.585938 2268.620312M3843.164063 2294.51875L3892.617188 2299.714062M3839.765625 2324.714062L3889.101563 2330.76875M3835.78125 2354.792187L3885 2361.70625M3831.289063 2384.83125L3880.390625 2392.604687M3826.289063 2414.792187L3875.234375 2423.425M3820.742188 2444.635937L3869.53125 2454.128125M3814.6875 2474.401562L3863.320313 2484.753125M3808.125 2504.05L3856.523438 2515.221875M3801.054688 2533.58125L3849.296875 2545.6125M3793.4375 2562.995312L3841.445313 2575.846875M3785.273438 2592.253125L3833.085938 2605.964062M3776.679688 2621.39375L3824.21875 2635.925M3767.539063 2650.339062L3814.84375 2665.690625M3757.929688 2679.167187L3804.921875 2695.339062M3747.773438 2707.760937L3794.492188 2724.792187M3737.148438 2736.198437L3783.554688 2754.010937M3726.015625 2764.440625L3772.109375 2783.1125M3714.375 2792.526562L3760.15625 2811.940625M3702.265625 2820.378125L3747.695313 2840.6125M3689.6875 2848.034375L3734.726563 2869.010937M3676.601563 2875.417187L3721.289063 2897.214062M3663.046875 2902.604687L3707.34375 2925.182812M3649.023438 2929.557812L3692.929688 2952.878125M3634.53125 2956.2375L3678.007813 2980.339062M3619.609375 2982.682812L3662.65625 3007.526562M3604.140625 3008.854687L3646.796875 3034.440625M3588.320313 3034.714062L3630.46875 3061.08125M3571.992188 3060.378125L3613.671875 3087.448437M3555.234375 3085.651562L3596.445313 3113.464062M3538.046875 3110.690625L3578.75 3139.20625M3520.390625 3135.417187L3560.625 3164.635937M3502.34375 3159.83125L3542.03125 3189.753125M3483.828125 3183.932812L3523.007813 3214.557812M3464.921875 3207.682812L3503.554688 3238.971875M3445.585938 3231.159375L3483.671875 3263.073437M3425.898438 3254.245312L3463.398438 3286.8625M3405.742188 3276.979687L3442.695313 3310.221875M3385.234375 3299.3625L3421.601563 3333.26875M3364.335938 3321.39375L3400.117188 3355.925M3343.046875 3343.034375L3378.203125 3378.190625M3321.367188 3364.3625L3355.9375 3400.104687M3299.375 3385.221875L3333.28125 3421.628125M3276.953125 3405.729687L3310.234375 3442.682812M3254.257813 3425.885937L3286.835938 3463.425M3231.132813 3445.6125L3263.085938 3483.698437M3207.695313 3464.948437L3238.984375 3503.542187M3183.945313 3483.815625L3214.53125 3522.995312M3159.84375 3502.33125L3189.765625 3542.057812M3135.390625 3520.417187L3164.648438 3560.6125M3110.703125 3538.034375L3139.21875 3578.7375M3085.664063 3555.221875L3113.476563 3596.432812M3060.351563 3571.979687L3087.421875 3613.698437M3034.726563 3588.307812L3061.09375 3630.45625M3008.867188 3604.167187L3034.453125 3646.784375M2982.65625 3619.596875L3007.539063 3662.64375M2956.25 3634.557812L2980.351563 3678.034375M2929.53125 3649.010937L2952.890625 3692.95625M2902.617188 3663.034375L2925.195313 3707.33125M2875.429688 3676.589062L2897.226563 3721.276562M2848.007813 3689.675L2869.023438 3734.753125M2820.390625 3702.253125L2840.585938 3747.682812M2792.539063 3714.3625L2811.953125 3760.14375M2764.453125 3726.003125L2783.085938 3772.096875M2736.210938 3737.135937L2754.023438 3783.542187M2707.773438 3747.8L2724.804688 3794.51875M2679.140625 3757.917187L2695.351563 3804.948437M2650.351563 3767.565625L2665.703125 3814.83125M2621.367188 3776.667187L2635.898438 3824.20625M2592.265625 3785.3L2605.976563 3833.073437M2563.007813 3793.425L2575.859375 3841.432812M2533.554688 3801.042187L2545.585938 3849.284375M2504.0625 3808.1125L2515.234375 3856.55M2474.414063 3814.714062L2484.765625 3863.307812M2444.648438 3820.76875L2454.140625 3869.557812M2414.804688 3826.276562L2423.4375 3875.260937M2384.84375 3831.276562L2392.617188 3880.378125M2354.804688 3835.76875L2361.71875 3884.9875M2324.6875 3839.753125L2330.742188 3889.089062M2294.492188 3843.151562L2299.6875 3892.604687M2264.296875 3846.08125L2268.632813 3895.573437M2234.023438 3848.464062L2237.460938 3898.034375M2203.710938 3850.339062L2206.289063 3899.948437M2173.359375 3851.667187L2175.078125 3901.315625M2143.007813 3852.448437L2143.867188 3902.135937M2112.617188 3852.721875L2112.617188 3902.448437M2082.265625 3852.448437L2081.40625 3902.135937M2051.914063 3851.667187L2050.195313 3901.315625M2021.5625 3850.339062L2018.945313 3899.948437M1991.25 3848.464062L1987.773438 3898.034375M1960.976563 3846.08125L1956.640625 3895.573437M1930.742188 3843.151562L1925.546875 3892.604687M1900.585938 3839.753125L1894.492188 3889.089062M1870.46875 3835.76875L1863.554688 3884.9875M1840.429688 3831.276562L1832.65625 3880.378125M1810.46875 3826.276562L1801.835938 3875.260937M1780.625 3820.76875L1771.132813 3869.557812M1750.859375 3814.714062L1740.507813 3863.307812M1721.210938 3808.1125L1710.039063 3856.55M1691.679688 3801.042187L1679.648438 3849.284375M1662.265625 3793.425L1649.414063 3841.432812M1633.007813 3785.3L1619.296875 3833.073437M1603.90625 3776.667187L1589.335938 3824.20625M1574.921875 3767.565625L1559.53125 3814.83125M1546.09375 3757.917187L1529.921875 3804.948437M1517.460938 3747.8L1500.46875 3794.51875M1489.0625 3737.135937L1471.210938 3783.542187M1460.78125 3726.003125L1442.148438 3772.096875M1432.734375 3714.3625L1413.28125 3760.14375M1404.882813 3702.253125L1384.648438 3747.682812M1377.226563 3689.675L1356.210938 3734.753125M1349.84375 3676.589062L1328.046875 3721.276562M1322.65625 3663.034375L1300.078125 3707.33125M1295.703125 3649.010937L1272.382813 3692.95625M1269.023438 3634.557812L1244.921875 3678.034375M1242.578125 3619.596875L1217.734375 3662.64375M1216.40625 3604.167187L1190.78125 3646.784375M1190.546875 3588.307812L1164.179688 3630.45625M1164.882813 3571.979687L1137.8125 3613.698437M1139.609375 3555.221875L1111.796875 3596.432812M1114.570313 3538.034375L1086.054688 3578.7375M1089.84375 3520.417187L1060.625 3560.6125M1065.429688 3502.33125L1035.507813 3542.057812M1041.328125 3483.815625L1010.703125 3522.995312M1017.578125 3464.948437L986.289063 3503.542187M994.140625 3445.6125L962.1875 3483.698437M971.015625 3425.885937L938.398438 3463.425M948.28125 3405.729687L915.039063 3442.682812M925.898438 3385.221875L891.992188 3421.628125M903.867188 3364.3625L869.335938 3400.104687M882.226563 3343.034375L847.070313 3378.190625M860.898438 3321.39375L825.15625 3355.925M840.039063 3299.3625L803.632813 3333.26875M819.53125 3276.979687L782.578125 3310.221875M799.375 3254.245312L761.835938 3286.8625M779.648438 3231.159375L741.5625 3263.073437M760.3125 3207.682812L721.71875 3238.971875M741.445313 3183.932812L702.265625 3214.557812M722.929688 3159.83125L683.203125 3189.753125M704.84375 3135.417187L664.648438 3164.635937M687.226563 3110.690625L646.523438 3139.20625M670.039063 3085.651562L628.828125 3113.464062M653.28125 3060.378125L611.5625 3087.448437M636.953125 3034.714062L594.804688 3061.08125M621.09375 3008.854687L578.476563 3034.440625M605.664063 2982.682812L562.617188 3007.526562M590.742188 2956.2375L547.226563 2980.339062M576.210938 2929.557812L532.304688 2952.878125M562.226563 2902.604687L517.890625 2925.182812M548.671875 2875.417187L503.984375 2897.214062M535.585938 2848.034375L490.507813 2869.010937M523.007813 2820.378125L477.578125 2840.6125M510.898438 2792.526562L465.117188 2811.940625M499.257813 2764.440625L453.164063 2783.1125M488.125 2736.198437L441.71875 2754.010937M477.460938 2707.760937L430.742188 2724.792187M467.34375 2679.167187L420.351563 2695.339062M457.695313 2650.339062L410.429688 2665.690625M448.59375 2621.39375L401.054688 2635.925M439.960938 2592.253125L392.1875 2605.964062M431.835938 2562.995312L383.828125 2575.846875M424.21875 2533.58125L375.976563 2545.6125M417.148438 2504.05L368.710938 2515.221875M410.546875 2474.401562L361.953125 2484.753125M404.53125 2444.635937L355.703125 2454.128125M398.984375 2414.792187L350 2423.425M393.984375 2384.83125L344.882813 2392.604687M389.492188 2354.792187L340.273438 2361.70625M385.507813 2324.714062L336.171875 2330.76875M382.070313 2294.51875L332.65625 2299.714062M379.179688 2264.284375L329.648438 2268.620312M376.796875 2234.010937L327.1875 2237.4875M374.921875 2203.698437L325.3125 2206.315625M373.59375 2173.346875L323.945313 2175.065625M372.8125 2142.995312L323.125 2143.854687M372.539063 2112.64375L322.8125 2112.64375M372.8125 2082.253125L323.125 2081.39375M373.59375 2051.901562L323.945313 2050.182812M374.921875 2021.589062L325.3125 2018.971875M376.796875 1991.2375L327.1875 1987.760937M379.179688 1960.964062L329.648438 1956.628125M382.070313 1930.76875L332.65625 1925.534375M385.507813 1900.573437L336.171875 1894.51875M389.492188 1870.45625L340.273438 1863.542187M393.984375 1840.417187L344.882813 1832.64375M398.984375 1810.45625L350 1801.823437M404.53125 1780.6125L355.703125 1771.120312M410.546875 1750.846875L361.953125 1740.495312M417.148438 1721.198437L368.710938 1710.026562M424.21875 1691.70625L375.976563 1679.675M431.835938 1662.253125L383.828125 1649.401562M439.960938 1632.995312L392.1875 1619.284375M448.59375 1603.89375L401.054688 1589.3625M457.695313 1574.909375L410.429688 1559.557812M467.34375 1546.120312L420.351563 1529.909375M477.460938 1517.4875L430.742188 1500.45625M488.125 1489.05L441.71875 1471.2375M499.257813 1460.807812L453.164063 1442.175M510.898438 1432.721875L465.117188 1413.307812M523.007813 1404.870312L477.578125 1384.675M535.585938 1377.253125L490.507813 1356.2375M548.671875 1349.83125L503.984375 1328.034375M562.226563 1322.64375L517.890625 1300.065625M576.210938 1295.729687L532.304688 1272.409375M590.742188 1269.010937L547.226563 1244.909375M605.664063 1242.604687L562.617188 1217.721875M621.09375 1216.39375L578.476563 1190.807812M636.953125 1190.534375L594.804688 1164.167187M653.28125 1164.909375L611.5625 1137.839062M670.039063 1139.596875L628.828125 1111.784375M687.226563 1114.557812L646.523438 1086.042187M704.84375 1089.83125L664.648438 1060.6125M722.929688 1065.417187L683.203125 1035.495312M741.445313 1041.315625L702.265625 1010.729687M760.3125 1017.565625L721.71875 986.276562M779.648438 994.128125L741.5625 962.175M799.375 971.003125L761.835938 938.425M819.53125 948.307812L782.578125 915.026562M840.039063 925.885937L803.632813 891.979687M860.898438 903.89375L825.15625 869.323437M882.226563 882.214062L847.070313 847.057812M903.867188 860.925L869.335938 825.14375M925.898438 840.026562L891.992188 803.659375M948.28125 819.51875L915.039063 782.565625M971.015625 799.3625L938.398438 761.8625M994.140625 779.675L962.1875 741.589062M1017.578125 760.339062L986.289063 721.70625M1041.328125 741.432812L1010.703125 702.253125M1065.429688 722.917187L1035.507813 683.229687M1089.84375 704.870312L1060.625 664.635937M1114.570313 687.253125L1086.054688 646.510937M1139.609375 670.026562L1111.796875 628.815625M1164.882813 653.26875L1137.8125 611.589062M1190.546875 636.940625L1164.179688 594.792187M1216.40625 621.08125L1190.78125 578.464062M1242.578125 605.651562L1217.734375 562.604687M1269.023438 590.729687L1244.921875 547.253125M1295.703125 576.2375L1272.382813 532.33125M1322.65625 562.214062L1300.078125 517.917187M1349.84375 548.659375L1328.046875 503.971875M1377.226563 535.573437L1356.210938 490.534375M1404.882813 522.995312L1384.648438 477.565625M1432.734375 510.885937L1413.28125 465.14375M1460.78125 499.245312L1442.148438 453.151562M1489.0625 488.1125L1471.210938 441.70625M1517.460938 477.4875L1500.46875 430.76875M1546.09375 467.33125L1529.921875 420.339062M1574.921875 457.721875L1559.53125 410.417187M1603.90625 448.58125L1589.335938 401.042187M1633.007813 439.9875L1619.296875 392.175M1662.265625 431.823437L1649.414063 383.815625M1691.679688 424.20625L1679.648438 375.964062M1721.210938 417.135937L1710.039063 368.7375M1750.859375 410.573437L1740.507813 361.940625M1780.625 404.51875L1771.132813 355.729687M1810.46875 398.971875L1801.835938 350.026562M1840.429688 393.971875L1832.65625 344.870312M1870.46875 389.479687L1863.554688 340.260937M1900.585938 385.495312L1894.492188 336.159375M1930.742188 382.096875L1925.546875 332.64375M1960.976563 379.20625L1956.640625 329.675M1991.25 376.784375L1987.773438 327.214062M2021.5625 374.948437L2018.945313 325.3M2051.914063 373.620312L2050.195313 323.932812M2082.265625 372.8L2081.40625 323.1125M2112.617188 372.526562L2112.617188 322.839062M2143.007813 372.8L2143.867188 323.1125M2173.359375 373.620312L2175.078125 323.932812M2203.710938 374.948437L2206.289063 325.3M2234.023438 376.784375L2237.460938 327.214062M2264.296875 379.20625L2268.632813 329.675M2294.492188 382.096875L2299.6875 332.64375M2324.6875 385.495312L2330.742188 336.159375M2354.804688 389.479687L2361.71875 340.260937M2384.84375 393.971875L2392.617188 344.870312M2414.804688 398.971875L2423.4375 350.026562M2444.648438 404.51875L2454.140625 355.729687M2474.414063 410.573437L2484.765625 361.940625M2504.0625 417.135937L2515.234375 368.7375M2533.554688 424.20625L2545.585938 375.964062M2563.007813 431.823437L2575.859375 383.815625M2592.265625 439.9875L2605.976563 392.175M2621.367188 448.58125L2635.898438 401.042187M2650.351563 457.721875L2665.703125 410.417187M2679.140625 467.33125L2695.351563 420.339062M2707.773438 477.4875L2724.804688 430.76875M2736.210938 488.1125L2754.023438 441.70625M2764.453125 499.245312L2783.085938 453.151562M2792.539063 510.885937L2811.953125 465.14375M2820.390625 522.995312L2840.585938 477.565625M2848.007813 535.573437L2869.023438 490.534375M2875.429688 548.659375L2897.226563 503.971875M2902.617188 562.214062L2925.195313 517.917187M2929.53125 576.2375L2952.890625 532.33125M2956.25 590.729687L2980.351563 547.253125M2982.65625 605.651562L3007.539063 562.604687M3008.867188 621.08125L3034.453125 578.464062M3034.726563 636.940625L3061.09375 594.792187M3060.351563 653.26875L3087.421875 611.589062M3085.664063 670.026562L3113.476563 628.815625M3110.703125 687.253125L3139.21875 646.510937M3135.390625 704.870312L3164.648438 664.635937M3159.84375 722.917187L3189.765625 683.229687M3183.945313 741.432812L3214.53125 702.253125M3207.695313 760.339062L3238.984375 721.70625M3231.132813 779.675L3263.085938 741.589062M3254.257813 799.3625L3286.835938 761.8625M3276.953125 819.51875L3310.234375 782.565625M3299.375 840.026562L3333.28125 803.659375M3321.367188 860.925L3355.9375 825.14375M3343.046875 882.214062L3378.203125 847.057812M3364.335938 903.89375L3400.117188 869.323437M3385.234375 925.885937L3421.601563 891.979687M3405.742188 948.307812L3442.695313 915.026562M3425.898438 971.003125L3463.398438 938.425M3445.585938 994.128125L3483.671875 962.175M3464.921875 1017.565625L3503.554688 986.276562M3483.828125 1041.315625L3523.007813 1010.729687M3502.34375 1065.417187L3542.03125 1035.495312M3520.390625 1089.83125L3560.625 1060.6125M3538.046875 1114.557812L3578.75 1086.042187M3555.234375 1139.596875L3596.445313 1111.784375M3571.992188 1164.909375L3613.671875 1137.839062M3588.320313 1190.534375L3630.46875 1164.167187M3604.140625 1216.39375L3646.796875 1190.807812M3619.609375 1242.604687L3662.65625 1217.721875M3634.53125 1269.010937L3678.007813 1244.909375M3649.023438 1295.729687L3692.929688 1272.409375M3663.046875 1322.64375L3707.34375 1300.065625M3676.601563 1349.83125L3721.289063 1328.034375M3689.6875 1377.253125L3734.726563 1356.2375M3702.265625 1404.870312L3747.695313 1384.675M3714.375 1432.721875L3760.15625 1413.307812M3726.015625 1460.807812L3772.109375 1442.175M3737.148438 1489.05L3783.554688 1471.2375M3747.773438 1517.4875L3794.492188 1500.45625M3757.929688 1546.120312L3804.921875 1529.909375M3767.539063 1574.909375L3814.84375 1559.557812M3776.679688 1603.89375L3824.21875 1589.3625M3785.273438 1632.995312L3833.085938 1619.284375M3793.4375 1662.253125L3841.445313 1649.401562M3801.054688 1691.70625L3849.296875 1679.675M3808.125 1721.198437L3856.523438 1710.026562M3814.6875 1750.846875L3863.320313 1740.495312M3820.742188 1780.6125L3869.53125 1771.120312M3826.289063 1810.45625L3875.234375 1801.823437M3831.289063 1840.417187L3880.390625 1832.64375M3835.78125 1870.45625L3885 1863.542187M3839.765625 1900.573437L3889.101563 1894.51875M3843.164063 1930.76875L3892.617188 1925.534375M3846.054688 1960.964062L3895.585938 1956.628125M3848.476563 1991.2375L3898.046875 1987.760937M3850.3125 2021.589062L3899.960938 2018.971875M3851.640625 2051.901562L3901.328125 2050.182812M3852.460938 2082.253125L3902.148438 2081.39375M3852.734375 2112.64375L3902.421875 2112.64375" transform="matrix(.1 0 0 -.1 0 422.53)" fill="none" stroke-width="7.97" stroke-linejoin="round" stroke="#000" stroke-miterlimit="10" />
  <path d="M205.433594 56.605469C208.390625 56.578125 210.90625 55.015625 210.90625 51.398438 210.90625 49.410156 210.007813 47.742188 207.800781 47.742188 205.945313 47.742188 204.949219 48.804688 204.949219 50.621094 204.949219 52.394531 205.863281 53.472656 207.261719 53.472656 207.90625 53.472656 208.324219 53.1875 208.835938 52.746094L208.957031 52.757813C208.648438 54.976563 207.183594 55.796875 205.40625 56.011719zM206.925781 50.539063C206.925781 48.914063 207.222656 48.359375 207.789063 48.359375 208.582031 48.359375 208.890625 49.476563 208.890625 51.078125 208.890625 52.085938 208.527344 52.449219 208.03125 52.449219 207.289063 52.449219 206.925781 51.667969 206.925781 50.539063M217.609375 52.167969C217.609375 49.273438 216.4375 47.796875 214.664063 47.796875 212.6875 47.796875 211.648438 49.394531 211.648438 52.128906 211.648438 54.65625 212.429688 56.578125 214.636719 56.578125 216.773438 56.578125 217.609375 54.640625 217.609375 52.167969zM215.578125 52.246094C215.578125 54.734375 215.226563 55.960938 214.621094 55.960938 214.015625 55.960938 213.652344 54.707031 213.652344 52.195313 213.652344 49.625 214.015625 48.386719 214.621094 48.386719 215.242188 48.386719 215.578125 49.609375 215.578125 52.246094M48.398438 215.53125L48.398438 214.953125C47.164063 214.953125 46.585938 214.710938 46.585938 214.050781L46.585938 206.9375 45.695313 206.9375 42.710938 207.675781 42.710938 208.335938C43.140625 208.242188 43.882813 208.175781 44.148438 208.175781 44.484375 208.175781 44.59375 208.359375 44.59375 208.832031L44.59375 214.050781C44.59375 214.722656 44.054688 214.953125 42.792969 214.953125L42.792969 215.53125 48.398438 215.53125M55.148438 213.378906C55.148438 212.261719 54.636719 211.710938 53.0625 210.714844L53.0625 210.675781C54.328125 210.070313 54.773438 209.53125 54.773438 208.617188 54.773438 207.570313 53.695313 206.800781 52.214844 206.800781 50.523438 206.800781 49.324219 207.582031 49.324219 208.886719 49.324219 209.746094 49.632813 210.378906 51.046875 211.320313L51.046875 211.359375C49.808594 212.101563 49.109375 212.570313 49.109375 213.621094 49.109375 215.003906 50.320313 215.71875 51.972656 215.71875 53.761719 215.71875 55.148438 214.9375 55.148438 213.378906zM53.226563 208.632813C53.226563 209.386719 52.941406 209.882813 52.511719 210.339844 51.515625 209.722656 51.140625 209.25 51.140625 208.578125 51.140625 207.839844 51.597656 207.40625 52.269531 207.40625 52.820313 207.40625 53.226563 207.851563 53.226563 208.632813zM51.53125 211.683594C52.835938 212.664063 53.25 213.097656 53.25 213.902344 53.25 214.722656 52.59375 215.140625 52.027344 215.140625 51.234375 215.140625 50.695313 214.628906 50.695313 213.511719 50.695313 212.664063 51.113281 212.289063 51.53125 211.683594M61.808594 211.265625C61.808594 208.375 60.636719 206.894531 58.863281 206.894531 56.886719 206.894531 55.851563 208.496094 55.851563 211.226563 55.851563 213.753906 56.628906 215.679688 58.835938 215.679688 60.972656 215.679688 61.808594 213.742188 61.808594 211.265625zM59.777344 211.347656C59.777344 213.835938 59.425781 215.058594 58.820313 215.058594 58.21875 215.058594 57.851563 213.808594 57.851563 211.292969 57.851563 208.726563 58.21875 207.488281 58.820313 207.488281 59.441406 207.488281 59.777344 208.710938 59.777344 211.347656M207.527344 371.941406L206.949219 371.941406C206.640625 372.746094 206.464844 373.042969 205.753906 373.042969L204.203125 373.042969 203.359375 373.136719 203.359375 373.03125 204.917969 371.738281C206.53125 370.40625 207.324219 369.492188 207.324219 368.175781 207.324219 366.816406 206.210938 365.902344 204.664063 365.902344 203.210938 365.902344 202.148438 366.628906 201.664063 367.945313L202.253906 368.160156C202.714844 367.21875 203.25 366.992188 204.003906 366.992188 204.90625 366.992188 205.265625 367.542969 205.265625 368.375 205.265625 369.84375 204.648438 370.6875 203.410156 371.953125L201.664063 373.726563 201.664063 374.628906 207.097656 374.628906 207.527344 371.941406M214.21875 367.113281L214.21875 366.15625 208.8125 366.15625 208.277344 368.753906 208.828125 368.792969C209.191406 367.917969 209.296875 367.785156 210.050781 367.785156L212.929688 367.785156 209.324219 374.738281 211.03125 374.738281 214.21875 367.113281M220.90625 370.367188C220.90625 367.476563 219.738281 365.996094 217.964844 365.996094 215.984375 365.996094 214.949219 367.59375 214.949219 370.328125 214.949219 372.855469 215.730469 374.777344 217.9375 374.777344 220.074219 374.777344 220.90625 372.839844 220.90625 370.367188zM218.878906 370.445313C218.878906 372.933594 218.527344 374.160156 217.921875 374.160156 217.316406 374.160156 216.953125 372.90625 216.953125 370.394531 216.953125 367.824219 217.316406 366.585938 217.921875 366.585938 218.539063 366.585938 218.878906 367.8125 218.878906 370.445313M362.960938 213.773438C363.339844 213.183594 363.753906 212.871094 364.421875 212.871094 365.113281 212.871094 365.558594 213.25 365.558594 213.90625 365.558594 214.8125 364.765625 215.425781 364.007813 215.425781L363.796875 215.425781 363.796875 215.847656 364.019531 215.847656C365.089844 215.847656 366.039063 216.507813 366.039063 217.5 366.039063 218.59375 365.359375 218.917969 364.65625 218.917969 364.386719 218.917969 364.230469 218.871094 363.753906 218.628906 363.359375 218.425781 363.273438 218.371094 363.09375 218.371094 362.804688 218.371094 362.65625 218.628906 362.65625 218.859375 362.65625 219.152344 362.902344 219.476563 363.90625 219.476563 365.535156 219.476563 366.953125 218.695313 366.953125 217.164063 366.953125 216.171875 366.207031 215.582031 365.3125 215.300781L365.3125 215.269531C366.015625 214.820313 366.519531 214.410156 366.519531 213.640625 366.519531 212.792969 365.859375 212.144531 364.722656 212.144531 363.808594 212.144531 363.117188 212.65625 362.703125 213.628906L362.960938 213.773438M372.230469 212.125C369.832031 212.222656 368.101563 213.773438 368.101563 216.464844 368.101563 218.101563 368.828125 219.464844 370.488281 219.464844 371.894531 219.464844 372.699219 218.582031 372.699219 217.066406 372.699219 215.601563 371.90625 214.722656 370.691406 214.722656 370.109375 214.722656 369.695313 214.96875 369.242188 215.414063L369.164063 215.402344C369.441406 213.773438 370.691406 212.683594 372.253906 212.445313zM371.726563 217.15625C371.726563 218.570313 371.28125 219.074219 370.535156 219.074219 369.5625 219.074219 369.105469 218.078125 369.105469 216.695313 369.105469 215.726563 369.707031 215.367188 370.355469 215.367188 371.28125 215.367188 371.726563 216.148438 371.726563 217.15625M378.320313 215.792969C378.320313 213.496094 377.316406 212.167969 375.878906 212.167969 374.261719 212.167969 373.402344 213.640625 373.402344 215.761719 373.402344 217.734375 374.058594 219.453125 375.855469 219.453125 377.609375 219.453125 378.320313 217.703125 378.320313 215.792969zM377.238281 215.859375C377.238281 218.003906 376.738281 219.050781 375.855469 219.050781 374.964844 219.050781 374.472656 217.980469 374.472656 215.816406 374.472656 213.605469 374.964844 212.546875 375.84375 212.546875 376.757813 212.546875 377.238281 213.597656 377.238281 215.859375M373.308594 206.765625C373.308594 203.875 372.136719 202.394531 370.363281 202.394531 368.386719 202.394531 367.351563 203.996094 367.351563 206.726563 367.351563 209.253906 368.128906 211.179688 370.335938 211.179688 372.472656 211.179688 373.308594 209.242188 373.308594 206.765625zM371.277344 206.847656C371.277344 209.335938 370.925781 210.558594 370.320313 210.558594 369.71875 210.558594 369.351563 209.308594 369.351563 206.792969 369.351563 204.226563 369.71875 202.988281 370.320313 202.988281 370.941406 202.988281 371.277344 204.210938 371.277344 206.847656" />
</svg>